<?xml version="1.0" encoding="utf-8"?>
<svg xmlns="http://www.w3.org/2000/svg" xmlns:xlink="http://www.w3.org/1999/xlink" width="600" height="400" viewBox="0 0 2400 1600">
<defs>
  <clipPath id="clip670">
    <rect x="0" y="0" width="2400" height="1600"/>
  </clipPath>
</defs>
<path clip-path="url(#clip670)" d="M0 1600 L2400 1600 L2400 0 L0 0  Z" fill="#ffffff" fill-rule="evenodd" fill-opacity="1"/>
<defs>
  <clipPath id="clip671">
    <rect x="480" y="0" width="1681" height="1600"/>
  </clipPath>
</defs>
<path clip-path="url(#clip670)" d="M219.866 1423.18 L2352.76 1423.18 L2352.76 47.2441 L219.866 47.2441  Z" fill="#ffffff" fill-rule="evenodd" fill-opacity="1"/>
<defs>
  <clipPath id="clip672">
    <rect x="219" y="47" width="2134" height="1377"/>
  </clipPath>
</defs>
<polyline clip-path="url(#clip672)" style="stroke:#000000; stroke-linecap:round; stroke-linejoin:round; stroke-width:2; stroke-opacity:0.1; fill:none" points="280.231,1423.18 280.231,47.2441 "/>
<polyline clip-path="url(#clip670)" style="stroke:#000000; stroke-linecap:round; stroke-linejoin:round; stroke-width:4; stroke-opacity:1; fill:none" points="219.866,1423.18 2352.76,1423.18 "/>
<polyline clip-path="url(#clip670)" style="stroke:#000000; stroke-linecap:round; stroke-linejoin:round; stroke-width:4; stroke-opacity:1; fill:none" points="280.231,1423.18 280.231,1404.28 "/>
<path clip-path="url(#clip670)" d="M280.231 1454.1 Q276.62 1454.1 274.791 1457.66 Q272.986 1461.2 272.986 1468.33 Q272.986 1475.44 274.791 1479.01 Q276.62 1482.55 280.231 1482.55 Q283.865 1482.55 285.671 1479.01 Q287.5 1475.44 287.5 1468.33 Q287.5 1461.2 285.671 1457.66 Q283.865 1454.1 280.231 1454.1 M280.231 1450.39 Q286.041 1450.39 289.097 1455 Q292.175 1459.58 292.175 1468.33 Q292.175 1477.06 289.097 1481.67 Q286.041 1486.25 280.231 1486.25 Q274.421 1486.25 271.342 1481.67 Q268.287 1477.06 268.287 1468.33 Q268.287 1459.58 271.342 1455 Q274.421 1450.39 280.231 1450.39 Z" fill="#000000" fill-rule="evenodd" fill-opacity="1" /><path clip-path="url(#clip670)" d="M1038.22 1537.81 L1038.22 1518.52 L1044.08 1518.52 L1044.08 1568.04 L1038.22 1568.04 L1038.22 1562.7 Q1036.38 1565.88 1033.54 1567.44 Q1030.74 1568.97 1026.8 1568.97 Q1020.34 1568.97 1016.26 1563.81 Q1012.22 1558.65 1012.22 1550.25 Q1012.22 1541.85 1016.26 1536.69 Q1020.34 1531.54 1026.8 1531.54 Q1030.74 1531.54 1033.54 1533.1 Q1036.38 1534.62 1038.22 1537.81 M1018.27 1550.25 Q1018.27 1556.71 1020.91 1560.4 Q1023.58 1564.07 1028.23 1564.07 Q1032.88 1564.07 1035.55 1560.4 Q1038.22 1556.71 1038.22 1550.25 Q1038.22 1543.79 1035.55 1540.13 Q1032.88 1536.44 1028.23 1536.44 Q1023.58 1536.44 1020.91 1540.13 Q1018.27 1543.79 1018.27 1550.25 Z" fill="#000000" fill-rule="evenodd" fill-opacity="1" /><path clip-path="url(#clip670)" d="M1069.96 1536.5 Q1065.25 1536.5 1062.51 1540.19 Q1059.77 1543.85 1059.77 1550.25 Q1059.77 1556.65 1062.48 1560.34 Q1065.21 1564 1069.96 1564 Q1074.64 1564 1077.37 1560.31 Q1080.11 1556.62 1080.11 1550.25 Q1080.11 1543.92 1077.37 1540.23 Q1074.64 1536.5 1069.96 1536.5 M1069.96 1531.54 Q1077.6 1531.54 1081.96 1536.5 Q1086.32 1541.47 1086.32 1550.25 Q1086.32 1559 1081.96 1564 Q1077.6 1568.97 1069.96 1568.97 Q1062.29 1568.97 1057.93 1564 Q1053.6 1559 1053.6 1550.25 Q1053.6 1541.47 1057.93 1536.5 Q1062.29 1531.54 1069.96 1531.54 Z" fill="#000000" fill-rule="evenodd" fill-opacity="1" /><path clip-path="url(#clip670)" d="M1121.68 1533.76 L1121.68 1539.24 Q1119.2 1537.87 1116.68 1537.2 Q1114.2 1536.5 1111.65 1536.5 Q1105.95 1536.5 1102.8 1540.13 Q1099.65 1543.73 1099.65 1550.25 Q1099.65 1556.78 1102.8 1560.4 Q1105.95 1564 1111.65 1564 Q1114.2 1564 1116.68 1563.33 Q1119.2 1562.63 1121.68 1561.26 L1121.68 1566.68 Q1119.23 1567.82 1116.59 1568.39 Q1113.98 1568.97 1111.02 1568.97 Q1102.96 1568.97 1098.22 1563.91 Q1093.48 1558.85 1093.48 1550.25 Q1093.48 1541.53 1098.25 1536.53 Q1103.06 1531.54 1111.4 1531.54 Q1114.1 1531.54 1116.68 1532.11 Q1119.26 1532.65 1121.68 1533.76 Z" fill="#000000" fill-rule="evenodd" fill-opacity="1" /><path clip-path="url(#clip670)" d="M1154.59 1533.45 L1154.59 1538.98 Q1152.11 1537.71 1149.43 1537.07 Q1146.76 1536.44 1143.89 1536.44 Q1139.53 1536.44 1137.34 1537.77 Q1135.17 1539.11 1135.17 1541.79 Q1135.17 1543.82 1136.73 1545 Q1138.29 1546.15 1143 1547.2 L1145.01 1547.64 Q1151.25 1548.98 1153.86 1551.43 Q1156.5 1553.85 1156.5 1558.21 Q1156.5 1563.17 1152.55 1566.07 Q1148.64 1568.97 1141.76 1568.97 Q1138.9 1568.97 1135.78 1568.39 Q1132.69 1567.85 1129.25 1566.74 L1129.25 1560.69 Q1132.5 1562.38 1135.65 1563.24 Q1138.8 1564.07 1141.89 1564.07 Q1146.03 1564.07 1148.25 1562.66 Q1150.48 1561.23 1150.48 1558.65 Q1150.48 1556.27 1148.86 1554.99 Q1147.27 1553.72 1141.83 1552.54 L1139.79 1552.07 Q1134.35 1550.92 1131.93 1548.56 Q1129.51 1546.18 1129.51 1542.04 Q1129.51 1537.01 1133.07 1534.27 Q1136.64 1531.54 1143.19 1531.54 Q1146.44 1531.54 1149.31 1532.01 Q1152.17 1532.49 1154.59 1533.45 Z" fill="#000000" fill-rule="evenodd" fill-opacity="1" /><path clip-path="url(#clip670)" d="M1183.08 1531.92 L1190.91 1531.92 L1190.91 1539.75 L1183.08 1539.75 L1183.08 1531.92 M1183.08 1555.47 L1190.91 1555.47 L1190.91 1563.27 L1183.08 1563.27 L1183.08 1555.47 M1166.59 1544.9 L1207.39 1544.9 L1207.39 1550.32 L1166.59 1550.32 L1166.59 1544.9 Z" fill="#000000" fill-rule="evenodd" fill-opacity="1" /><path clip-path="url(#clip670)" d="M1234.51 1518.58 Q1230.25 1525.9 1228.18 1533.06 Q1226.11 1540.23 1226.11 1547.58 Q1226.11 1554.93 1228.18 1562.16 Q1230.28 1569.35 1234.51 1576.64 L1229.42 1576.64 Q1224.64 1569.16 1222.26 1561.93 Q1219.9 1554.71 1219.9 1547.58 Q1219.9 1540.48 1222.26 1533.29 Q1224.61 1526.09 1229.42 1518.58 L1234.51 1518.58 Z" fill="#000000" fill-rule="evenodd" fill-opacity="1" /><path clip-path="url(#clip670)" d="M1269.33 1537.81 L1269.33 1518.52 L1275.19 1518.52 L1275.19 1568.04 L1269.33 1568.04 L1269.33 1562.7 Q1267.48 1565.88 1264.65 1567.44 Q1261.85 1568.97 1257.9 1568.97 Q1251.44 1568.97 1247.37 1563.81 Q1243.33 1558.65 1243.33 1550.25 Q1243.33 1541.85 1247.37 1536.69 Q1251.44 1531.54 1257.9 1531.54 Q1261.85 1531.54 1264.65 1533.1 Q1267.48 1534.62 1269.33 1537.81 M1249.37 1550.25 Q1249.37 1556.71 1252.02 1560.4 Q1254.69 1564.07 1259.34 1564.07 Q1263.98 1564.07 1266.66 1560.4 Q1269.33 1556.71 1269.33 1550.25 Q1269.33 1543.79 1266.66 1540.13 Q1263.98 1536.44 1259.34 1536.44 Q1254.69 1536.44 1252.02 1540.13 Q1249.37 1543.79 1249.37 1550.25 Z" fill="#000000" fill-rule="evenodd" fill-opacity="1" /><path clip-path="url(#clip670)" d="M1301.06 1536.5 Q1296.35 1536.5 1293.62 1540.19 Q1290.88 1543.85 1290.88 1550.25 Q1290.88 1556.65 1293.58 1560.34 Q1296.32 1564 1301.06 1564 Q1305.74 1564 1308.48 1560.31 Q1311.22 1556.62 1311.22 1550.25 Q1311.22 1543.92 1308.48 1540.23 Q1305.74 1536.5 1301.06 1536.5 M1301.06 1531.54 Q1308.7 1531.54 1313.06 1536.5 Q1317.42 1541.47 1317.42 1550.25 Q1317.42 1559 1313.06 1564 Q1308.7 1568.97 1301.06 1568.97 Q1293.39 1568.97 1289.03 1564 Q1284.7 1559 1284.7 1550.25 Q1284.7 1541.47 1289.03 1536.5 Q1293.39 1531.54 1301.06 1531.54 Z" fill="#000000" fill-rule="evenodd" fill-opacity="1" /><path clip-path="url(#clip670)" d="M1352.78 1533.76 L1352.78 1539.24 Q1350.3 1537.87 1347.79 1537.2 Q1345.31 1536.5 1342.76 1536.5 Q1337.06 1536.5 1333.91 1540.13 Q1330.76 1543.73 1330.76 1550.25 Q1330.76 1556.78 1333.91 1560.4 Q1337.06 1564 1342.76 1564 Q1345.31 1564 1347.79 1563.33 Q1350.3 1562.63 1352.78 1561.26 L1352.78 1566.68 Q1350.33 1567.82 1347.69 1568.39 Q1345.08 1568.97 1342.12 1568.97 Q1334.07 1568.97 1329.33 1563.91 Q1324.58 1558.85 1324.58 1550.25 Q1324.58 1541.53 1329.36 1536.53 Q1334.17 1531.54 1342.5 1531.54 Q1345.21 1531.54 1347.79 1532.11 Q1350.37 1532.65 1352.78 1533.76 Z" fill="#000000" fill-rule="evenodd" fill-opacity="1" /><path clip-path="url(#clip670)" d="M1385.7 1533.45 L1385.7 1538.98 Q1383.21 1537.71 1380.54 1537.07 Q1377.87 1536.44 1375 1536.44 Q1370.64 1536.44 1368.44 1537.77 Q1366.28 1539.11 1366.28 1541.79 Q1366.28 1543.82 1367.84 1545 Q1369.4 1546.15 1374.11 1547.2 L1376.12 1547.64 Q1382.35 1548.98 1384.96 1551.43 Q1387.61 1553.85 1387.61 1558.21 Q1387.61 1563.17 1383.66 1566.07 Q1379.74 1568.97 1372.87 1568.97 Q1370 1568.97 1366.89 1568.39 Q1363.8 1567.85 1360.36 1566.74 L1360.36 1560.69 Q1363.61 1562.38 1366.76 1563.24 Q1369.91 1564.07 1373 1564.07 Q1377.13 1564.07 1379.36 1562.66 Q1381.59 1561.23 1381.59 1558.65 Q1381.59 1556.27 1379.97 1554.99 Q1378.38 1553.72 1372.93 1552.54 L1370.9 1552.07 Q1365.45 1550.92 1363.03 1548.56 Q1360.61 1546.18 1360.61 1542.04 Q1360.61 1537.01 1364.18 1534.27 Q1367.74 1531.54 1374.3 1531.54 Q1377.55 1531.54 1380.41 1532.01 Q1383.28 1532.49 1385.7 1533.45 Z" fill="#000000" fill-rule="evenodd" fill-opacity="1" /><path clip-path="url(#clip670)" d="M1420.77 1527.18 L1420.77 1544.9 L1438.5 1544.9 L1438.5 1550.32 L1420.77 1550.32 L1420.77 1568.04 L1415.42 1568.04 L1415.42 1550.32 L1397.7 1550.32 L1397.7 1544.9 L1415.42 1544.9 L1415.42 1527.18 L1420.77 1527.18 Z" fill="#000000" fill-rule="evenodd" fill-opacity="1" /><path clip-path="url(#clip670)" d="M1474.27 1533.45 L1474.27 1538.98 Q1471.79 1537.71 1469.12 1537.07 Q1466.44 1536.44 1463.58 1536.44 Q1459.22 1536.44 1457.02 1537.77 Q1454.86 1539.11 1454.86 1541.79 Q1454.86 1543.82 1456.42 1545 Q1457.98 1546.15 1462.69 1547.2 L1464.69 1547.64 Q1470.93 1548.98 1473.54 1551.43 Q1476.18 1553.85 1476.18 1558.21 Q1476.18 1563.17 1472.24 1566.07 Q1468.32 1568.97 1461.45 1568.97 Q1458.58 1568.97 1455.46 1568.39 Q1452.38 1567.85 1448.94 1566.74 L1448.94 1560.69 Q1452.19 1562.38 1455.34 1563.24 Q1458.49 1564.07 1461.57 1564.07 Q1465.71 1564.07 1467.94 1562.66 Q1470.17 1561.23 1470.17 1558.65 Q1470.17 1556.27 1468.55 1554.99 Q1466.95 1553.72 1461.51 1552.54 L1459.47 1552.07 Q1454.03 1550.92 1451.61 1548.56 Q1449.19 1546.18 1449.19 1542.04 Q1449.19 1537.01 1452.76 1534.27 Q1456.32 1531.54 1462.88 1531.54 Q1466.13 1531.54 1468.99 1532.01 Q1471.86 1532.49 1474.27 1533.45 Z" fill="#000000" fill-rule="evenodd" fill-opacity="1" /><path clip-path="url(#clip670)" d="M1506.17 1537.87 Q1505.18 1537.3 1504 1537.04 Q1502.86 1536.76 1501.46 1536.76 Q1496.49 1536.76 1493.82 1540 Q1491.18 1543.22 1491.18 1549.27 L1491.18 1568.04 L1485.29 1568.04 L1485.29 1532.4 L1491.18 1532.4 L1491.18 1537.93 Q1493.02 1534.69 1495.98 1533.13 Q1498.94 1531.54 1503.17 1531.54 Q1503.78 1531.54 1504.51 1531.63 Q1505.24 1531.7 1506.13 1531.85 L1506.17 1537.87 Z" fill="#000000" fill-rule="evenodd" fill-opacity="1" /><path clip-path="url(#clip670)" d="M1536.53 1533.76 L1536.53 1539.24 Q1534.05 1537.87 1531.53 1537.2 Q1529.05 1536.5 1526.51 1536.5 Q1520.81 1536.5 1517.66 1540.13 Q1514.51 1543.73 1514.51 1550.25 Q1514.51 1556.78 1517.66 1560.4 Q1520.81 1564 1526.51 1564 Q1529.05 1564 1531.53 1563.33 Q1534.05 1562.63 1536.53 1561.26 L1536.53 1566.68 Q1534.08 1567.82 1531.44 1568.39 Q1528.83 1568.97 1525.87 1568.97 Q1517.82 1568.97 1513.07 1563.91 Q1508.33 1558.85 1508.33 1550.25 Q1508.33 1541.53 1513.11 1536.53 Q1517.91 1531.54 1526.25 1531.54 Q1528.96 1531.54 1531.53 1532.11 Q1534.11 1532.65 1536.53 1533.76 Z" fill="#000000" fill-rule="evenodd" fill-opacity="1" /><path clip-path="url(#clip670)" d="M1545.79 1518.58 L1550.89 1518.58 Q1555.66 1526.09 1558.02 1533.29 Q1560.4 1540.48 1560.4 1547.58 Q1560.4 1554.71 1558.02 1561.93 Q1555.66 1569.16 1550.89 1576.64 L1545.79 1576.64 Q1550.03 1569.35 1552.1 1562.16 Q1554.2 1554.93 1554.2 1547.58 Q1554.2 1540.23 1552.1 1533.06 Q1550.03 1525.9 1545.79 1518.58 Z" fill="#000000" fill-rule="evenodd" fill-opacity="1" /><polyline clip-path="url(#clip672)" style="stroke:#000000; stroke-linecap:round; stroke-linejoin:round; stroke-width:2; stroke-opacity:0.1; fill:none" points="219.866,1384.24 2352.76,1384.24 "/>
<polyline clip-path="url(#clip672)" style="stroke:#000000; stroke-linecap:round; stroke-linejoin:round; stroke-width:2; stroke-opacity:0.1; fill:none" points="219.866,1153.74 2352.76,1153.74 "/>
<polyline clip-path="url(#clip672)" style="stroke:#000000; stroke-linecap:round; stroke-linejoin:round; stroke-width:2; stroke-opacity:0.1; fill:none" points="219.866,923.242 2352.76,923.242 "/>
<polyline clip-path="url(#clip672)" style="stroke:#000000; stroke-linecap:round; stroke-linejoin:round; stroke-width:2; stroke-opacity:0.1; fill:none" points="219.866,692.744 2352.76,692.744 "/>
<polyline clip-path="url(#clip672)" style="stroke:#000000; stroke-linecap:round; stroke-linejoin:round; stroke-width:2; stroke-opacity:0.1; fill:none" points="219.866,462.246 2352.76,462.246 "/>
<polyline clip-path="url(#clip672)" style="stroke:#000000; stroke-linecap:round; stroke-linejoin:round; stroke-width:2; stroke-opacity:0.1; fill:none" points="219.866,231.748 2352.76,231.748 "/>
<polyline clip-path="url(#clip670)" style="stroke:#000000; stroke-linecap:round; stroke-linejoin:round; stroke-width:4; stroke-opacity:1; fill:none" points="219.866,1423.18 219.866,47.2441 "/>
<polyline clip-path="url(#clip670)" style="stroke:#000000; stroke-linecap:round; stroke-linejoin:round; stroke-width:4; stroke-opacity:1; fill:none" points="219.866,1384.24 238.764,1384.24 "/>
<polyline clip-path="url(#clip670)" style="stroke:#000000; stroke-linecap:round; stroke-linejoin:round; stroke-width:4; stroke-opacity:1; fill:none" points="219.866,1153.74 238.764,1153.74 "/>
<polyline clip-path="url(#clip670)" style="stroke:#000000; stroke-linecap:round; stroke-linejoin:round; stroke-width:4; stroke-opacity:1; fill:none" points="219.866,923.242 238.764,923.242 "/>
<polyline clip-path="url(#clip670)" style="stroke:#000000; stroke-linecap:round; stroke-linejoin:round; stroke-width:4; stroke-opacity:1; fill:none" points="219.866,692.744 238.764,692.744 "/>
<polyline clip-path="url(#clip670)" style="stroke:#000000; stroke-linecap:round; stroke-linejoin:round; stroke-width:4; stroke-opacity:1; fill:none" points="219.866,462.246 238.764,462.246 "/>
<polyline clip-path="url(#clip670)" style="stroke:#000000; stroke-linecap:round; stroke-linejoin:round; stroke-width:4; stroke-opacity:1; fill:none" points="219.866,231.748 238.764,231.748 "/>
<path clip-path="url(#clip670)" d="M126.691 1370.04 Q123.08 1370.04 121.251 1373.6 Q119.445 1377.14 119.445 1384.27 Q119.445 1391.38 121.251 1394.94 Q123.08 1398.49 126.691 1398.49 Q130.325 1398.49 132.13 1394.94 Q133.959 1391.38 133.959 1384.27 Q133.959 1377.14 132.13 1373.6 Q130.325 1370.04 126.691 1370.04 M126.691 1366.33 Q132.501 1366.33 135.556 1370.94 Q138.635 1375.52 138.635 1384.27 Q138.635 1393 135.556 1397.61 Q132.501 1402.19 126.691 1402.19 Q120.88 1402.19 117.802 1397.61 Q114.746 1393 114.746 1384.27 Q114.746 1375.52 117.802 1370.94 Q120.88 1366.33 126.691 1366.33 Z" fill="#000000" fill-rule="evenodd" fill-opacity="1" /><path clip-path="url(#clip670)" d="M146.853 1395.64 L151.737 1395.64 L151.737 1401.52 L146.853 1401.52 L146.853 1395.64 Z" fill="#000000" fill-rule="evenodd" fill-opacity="1" /><path clip-path="url(#clip670)" d="M171.922 1370.04 Q168.311 1370.04 166.482 1373.6 Q164.677 1377.14 164.677 1384.27 Q164.677 1391.38 166.482 1394.94 Q168.311 1398.49 171.922 1398.49 Q175.556 1398.49 177.362 1394.94 Q179.19 1391.38 179.19 1384.27 Q179.19 1377.14 177.362 1373.6 Q175.556 1370.04 171.922 1370.04 M171.922 1366.33 Q177.732 1366.33 180.788 1370.94 Q183.866 1375.52 183.866 1384.27 Q183.866 1393 180.788 1397.61 Q177.732 1402.19 171.922 1402.19 Q166.112 1402.19 163.033 1397.61 Q159.978 1393 159.978 1384.27 Q159.978 1375.52 163.033 1370.94 Q166.112 1366.33 171.922 1366.33 Z" fill="#000000" fill-rule="evenodd" fill-opacity="1" /><path clip-path="url(#clip670)" d="M127.917 1139.54 Q124.306 1139.54 122.478 1143.1 Q120.672 1146.65 120.672 1153.77 Q120.672 1160.88 122.478 1164.45 Q124.306 1167.99 127.917 1167.99 Q131.552 1167.99 133.357 1164.45 Q135.186 1160.88 135.186 1153.77 Q135.186 1146.65 133.357 1143.1 Q131.552 1139.54 127.917 1139.54 M127.917 1135.84 Q133.728 1135.84 136.783 1140.44 Q139.862 1145.02 139.862 1153.77 Q139.862 1162.5 136.783 1167.11 Q133.728 1171.69 127.917 1171.69 Q122.107 1171.69 119.029 1167.11 Q115.973 1162.5 115.973 1153.77 Q115.973 1145.02 119.029 1140.44 Q122.107 1135.84 127.917 1135.84 Z" fill="#000000" fill-rule="evenodd" fill-opacity="1" /><path clip-path="url(#clip670)" d="M148.079 1165.14 L152.964 1165.14 L152.964 1171.02 L148.079 1171.02 L148.079 1165.14 Z" fill="#000000" fill-rule="evenodd" fill-opacity="1" /><path clip-path="url(#clip670)" d="M163.959 1167.08 L171.598 1167.08 L171.598 1140.72 L163.288 1142.39 L163.288 1138.13 L171.552 1136.46 L176.227 1136.46 L176.227 1167.08 L183.866 1167.08 L183.866 1171.02 L163.959 1171.02 L163.959 1167.08 Z" fill="#000000" fill-rule="evenodd" fill-opacity="1" /><path clip-path="url(#clip670)" d="M128.288 909.041 Q124.677 909.041 122.848 912.605 Q121.043 916.147 121.043 923.277 Q121.043 930.383 122.848 933.948 Q124.677 937.49 128.288 937.49 Q131.922 937.49 133.728 933.948 Q135.556 930.383 135.556 923.277 Q135.556 916.147 133.728 912.605 Q131.922 909.041 128.288 909.041 M128.288 905.337 Q134.098 905.337 137.154 909.943 Q140.232 914.527 140.232 923.277 Q140.232 932.004 137.154 936.61 Q134.098 941.193 128.288 941.193 Q122.478 941.193 119.399 936.61 Q116.343 932.004 116.343 923.277 Q116.343 914.527 119.399 909.943 Q122.478 905.337 128.288 905.337 Z" fill="#000000" fill-rule="evenodd" fill-opacity="1" /><path clip-path="url(#clip670)" d="M148.45 934.642 L153.334 934.642 L153.334 940.522 L148.45 940.522 L148.45 934.642 Z" fill="#000000" fill-rule="evenodd" fill-opacity="1" /><path clip-path="url(#clip670)" d="M167.547 936.587 L183.866 936.587 L183.866 940.522 L161.922 940.522 L161.922 936.587 Q164.584 933.832 169.167 929.203 Q173.774 924.55 174.954 923.207 Q177.2 920.684 178.079 918.948 Q178.982 917.189 178.982 915.499 Q178.982 912.744 177.038 911.008 Q175.116 909.272 172.014 909.272 Q169.815 909.272 167.362 910.036 Q164.931 910.8 162.153 912.351 L162.153 907.629 Q164.977 906.494 167.431 905.916 Q169.885 905.337 171.922 905.337 Q177.292 905.337 180.487 908.022 Q183.681 910.707 183.681 915.198 Q183.681 917.328 182.871 919.249 Q182.084 921.147 179.977 923.74 Q179.399 924.411 176.297 927.629 Q173.195 930.823 167.547 936.587 Z" fill="#000000" fill-rule="evenodd" fill-opacity="1" /><path clip-path="url(#clip670)" d="M127.339 678.543 Q123.728 678.543 121.899 682.107 Q120.093 685.649 120.093 692.779 Q120.093 699.885 121.899 703.45 Q123.728 706.991 127.339 706.991 Q130.973 706.991 132.779 703.45 Q134.607 699.885 134.607 692.779 Q134.607 685.649 132.779 682.107 Q130.973 678.543 127.339 678.543 M127.339 674.839 Q133.149 674.839 136.204 679.445 Q139.283 684.029 139.283 692.779 Q139.283 701.505 136.204 706.112 Q133.149 710.695 127.339 710.695 Q121.529 710.695 118.45 706.112 Q115.394 701.505 115.394 692.779 Q115.394 684.029 118.45 679.445 Q121.529 674.839 127.339 674.839 Z" fill="#000000" fill-rule="evenodd" fill-opacity="1" /><path clip-path="url(#clip670)" d="M147.501 704.144 L152.385 704.144 L152.385 710.024 L147.501 710.024 L147.501 704.144 Z" fill="#000000" fill-rule="evenodd" fill-opacity="1" /><path clip-path="url(#clip670)" d="M176.737 691.39 Q180.093 692.107 181.968 694.376 Q183.866 696.644 183.866 699.978 Q183.866 705.093 180.348 707.894 Q176.829 710.695 170.348 710.695 Q168.172 710.695 165.857 710.255 Q163.565 709.839 161.112 708.982 L161.112 704.468 Q163.056 705.603 165.371 706.181 Q167.686 706.76 170.209 706.76 Q174.607 706.76 176.899 705.024 Q179.214 703.288 179.214 699.978 Q179.214 696.922 177.061 695.209 Q174.931 693.473 171.112 693.473 L167.084 693.473 L167.084 689.63 L171.297 689.63 Q174.746 689.63 176.575 688.265 Q178.403 686.876 178.403 684.283 Q178.403 681.621 176.505 680.209 Q174.63 678.774 171.112 678.774 Q169.19 678.774 166.991 679.191 Q164.792 679.607 162.153 680.487 L162.153 676.32 Q164.815 675.58 167.13 675.209 Q169.468 674.839 171.528 674.839 Q176.852 674.839 179.954 677.269 Q183.056 679.677 183.056 683.797 Q183.056 686.668 181.413 688.658 Q179.769 690.626 176.737 691.39 Z" fill="#000000" fill-rule="evenodd" fill-opacity="1" /><path clip-path="url(#clip670)" d="M126.205 448.044 Q122.593 448.044 120.765 451.609 Q118.959 455.151 118.959 462.28 Q118.959 469.387 120.765 472.952 Q122.593 476.493 126.205 476.493 Q129.839 476.493 131.644 472.952 Q133.473 469.387 133.473 462.28 Q133.473 455.151 131.644 451.609 Q129.839 448.044 126.205 448.044 M126.205 444.341 Q132.015 444.341 135.07 448.947 Q138.149 453.531 138.149 462.28 Q138.149 471.007 135.07 475.614 Q132.015 480.197 126.205 480.197 Q120.394 480.197 117.316 475.614 Q114.26 471.007 114.26 462.28 Q114.26 453.531 117.316 448.947 Q120.394 444.341 126.205 444.341 Z" fill="#000000" fill-rule="evenodd" fill-opacity="1" /><path clip-path="url(#clip670)" d="M146.366 473.646 L151.251 473.646 L151.251 479.526 L146.366 479.526 L146.366 473.646 Z" fill="#000000" fill-rule="evenodd" fill-opacity="1" /><path clip-path="url(#clip670)" d="M174.283 449.04 L162.477 467.489 L174.283 467.489 L174.283 449.04 M173.056 444.966 L178.936 444.966 L178.936 467.489 L183.866 467.489 L183.866 471.378 L178.936 471.378 L178.936 479.526 L174.283 479.526 L174.283 471.378 L158.681 471.378 L158.681 466.864 L173.056 444.966 Z" fill="#000000" fill-rule="evenodd" fill-opacity="1" /><path clip-path="url(#clip670)" d="M127.686 217.546 Q124.075 217.546 122.246 221.111 Q120.441 224.653 120.441 231.782 Q120.441 238.889 122.246 242.454 Q124.075 245.995 127.686 245.995 Q131.32 245.995 133.126 242.454 Q134.954 238.889 134.954 231.782 Q134.954 224.653 133.126 221.111 Q131.32 217.546 127.686 217.546 M127.686 213.843 Q133.496 213.843 136.552 218.449 Q139.63 223.032 139.63 231.782 Q139.63 240.509 136.552 245.116 Q133.496 249.699 127.686 249.699 Q121.876 249.699 118.797 245.116 Q115.742 240.509 115.742 231.782 Q115.742 223.032 118.797 218.449 Q121.876 213.843 127.686 213.843 Z" fill="#000000" fill-rule="evenodd" fill-opacity="1" /><path clip-path="url(#clip670)" d="M147.848 243.148 L152.732 243.148 L152.732 249.028 L147.848 249.028 L147.848 243.148 Z" fill="#000000" fill-rule="evenodd" fill-opacity="1" /><path clip-path="url(#clip670)" d="M162.964 214.468 L181.32 214.468 L181.32 218.403 L167.246 218.403 L167.246 226.875 Q168.264 226.528 169.283 226.366 Q170.302 226.181 171.32 226.181 Q177.107 226.181 180.487 229.352 Q183.866 232.523 183.866 237.94 Q183.866 243.518 180.394 246.62 Q176.922 249.699 170.602 249.699 Q168.427 249.699 166.158 249.329 Q163.913 248.958 161.505 248.217 L161.505 243.518 Q163.589 244.653 165.811 245.208 Q168.033 245.764 170.51 245.764 Q174.514 245.764 176.852 243.657 Q179.19 241.551 179.19 237.94 Q179.19 234.329 176.852 232.222 Q174.514 230.116 170.51 230.116 Q168.635 230.116 166.76 230.532 Q164.908 230.949 162.964 231.829 L162.964 214.468 Z" fill="#000000" fill-rule="evenodd" fill-opacity="1" /><path clip-path="url(#clip670)" d="M29.4065 974.228 L34.9447 974.228 Q33.6716 976.711 33.035 979.385 Q32.3984 982.058 32.3984 984.923 Q32.3984 989.283 33.7352 991.479 Q35.072 993.644 37.7456 993.644 Q39.7826 993.644 40.9603 992.084 Q42.1061 990.525 43.1565 985.814 L43.6021 983.809 Q44.9389 977.57 47.3897 974.96 Q49.8086 972.319 54.1691 972.319 Q59.1344 972.319 62.0308 976.265 Q64.9272 980.18 64.9272 987.055 Q64.9272 989.92 64.3543 993.039 Q63.8132 996.126 62.6992 999.564 L56.6518 999.564 Q58.3387 996.317 59.198 993.166 Q60.0256 990.015 60.0256 986.928 Q60.0256 982.79 58.6251 980.562 Q57.1929 978.334 54.6147 978.334 Q52.2276 978.334 50.9545 979.957 Q49.6813 981.549 48.5037 986.992 L48.0262 989.029 Q46.8804 994.471 44.5251 996.89 Q42.138 999.309 38.0002 999.309 Q32.9713 999.309 30.2341 995.744 Q27.4968 992.18 27.4968 985.623 Q27.4968 982.376 27.9743 979.512 Q28.4517 976.647 29.4065 974.228 Z" fill="#000000" fill-rule="evenodd" fill-opacity="1" /><path clip-path="url(#clip670)" d="M46.0847 946.792 Q46.0847 953.89 47.7079 956.627 Q49.3312 959.364 53.2461 959.364 Q56.3653 959.364 58.2114 957.327 Q60.0256 955.259 60.0256 951.726 Q60.0256 946.856 56.5881 943.928 Q53.1188 940.968 47.3897 940.968 L46.0847 940.968 L46.0847 946.792 M43.6657 935.111 L64.0042 935.111 L64.0042 940.968 L58.5933 940.968 Q61.8398 942.973 63.3994 945.965 Q64.9272 948.956 64.9272 953.285 Q64.9272 958.76 61.8716 962.006 Q58.7843 965.221 53.6281 965.221 Q47.6125 965.221 44.5569 961.21 Q41.5014 957.168 41.5014 949.179 L41.5014 940.968 L40.9285 940.968 Q36.8862 940.968 34.6901 943.641 Q32.4621 946.283 32.4621 951.089 Q32.4621 954.145 33.1941 957.041 Q33.9262 959.937 35.3903 962.611 L29.9795 962.611 Q28.7381 959.396 28.1334 956.373 Q27.4968 953.349 27.4968 950.484 Q27.4968 942.75 31.5072 938.93 Q35.5176 935.111 43.6657 935.111 Z" fill="#000000" fill-rule="evenodd" fill-opacity="1" /><path clip-path="url(#clip670)" d="M18.2347 917.255 L28.3562 917.255 L28.3562 905.192 L32.9077 905.192 L32.9077 917.255 L52.2594 917.255 Q56.6199 917.255 57.8613 916.078 Q59.1026 914.868 59.1026 911.208 L59.1026 905.192 L64.0042 905.192 L64.0042 911.208 Q64.0042 917.987 61.4897 920.565 Q58.9434 923.144 52.2594 923.144 L32.9077 923.144 L32.9077 927.44 L28.3562 927.44 L28.3562 923.144 L18.2347 923.144 L18.2347 917.255 Z" fill="#000000" fill-rule="evenodd" fill-opacity="1" /><path clip-path="url(#clip670)" d="M28.3562 897.49 L28.3562 891.633 L64.0042 891.633 L64.0042 897.49 L28.3562 897.49 M14.479 897.49 L14.479 891.633 L21.895 891.633 L21.895 897.49 L14.479 897.49 Z" fill="#000000" fill-rule="evenodd" fill-opacity="1" /><path clip-path="url(#clip670)" d="M29.4065 856.654 L34.9447 856.654 Q33.6716 859.136 33.035 861.81 Q32.3984 864.484 32.3984 867.348 Q32.3984 871.709 33.7352 873.905 Q35.072 876.069 37.7456 876.069 Q39.7826 876.069 40.9603 874.51 Q42.1061 872.95 43.1565 868.239 L43.6021 866.234 Q44.9389 859.996 47.3897 857.386 Q49.8086 854.744 54.1691 854.744 Q59.1344 854.744 62.0308 858.691 Q64.9272 862.606 64.9272 869.481 Q64.9272 872.345 64.3543 875.464 Q63.8132 878.552 62.6992 881.989 L56.6518 881.989 Q58.3387 878.743 59.198 875.592 Q60.0256 872.441 60.0256 869.353 Q60.0256 865.216 58.6251 862.988 Q57.1929 860.76 54.6147 860.76 Q52.2276 860.76 50.9545 862.383 Q49.6813 863.974 48.5037 869.417 L48.0262 871.454 Q46.8804 876.897 44.5251 879.316 Q42.138 881.735 38.0002 881.735 Q32.9713 881.735 30.2341 878.17 Q27.4968 874.605 27.4968 868.048 Q27.4968 864.802 27.9743 861.937 Q28.4517 859.073 29.4065 856.654 Z" fill="#000000" fill-rule="evenodd" fill-opacity="1" /><path clip-path="url(#clip670)" d="M14.479 827.371 L19.3487 827.371 L19.3487 832.973 Q19.3487 836.124 20.6219 837.366 Q21.895 838.575 25.2052 838.575 L28.3562 838.575 L28.3562 828.931 L32.9077 828.931 L32.9077 838.575 L64.0042 838.575 L64.0042 844.463 L32.9077 844.463 L32.9077 850.065 L28.3562 850.065 L28.3562 844.463 L25.8736 844.463 Q19.9216 844.463 17.2162 841.694 Q14.479 838.925 14.479 832.91 L14.479 827.371 Z" fill="#000000" fill-rule="evenodd" fill-opacity="1" /><path clip-path="url(#clip670)" d="M28.3562 822.47 L28.3562 816.613 L64.0042 816.613 L64.0042 822.47 L28.3562 822.47 M14.479 822.47 L14.479 816.613 L21.895 816.613 L21.895 822.47 L14.479 822.47 Z" fill="#000000" fill-rule="evenodd" fill-opacity="1" /><path clip-path="url(#clip670)" d="M44.7161 773.868 L47.5806 773.868 L47.5806 800.795 Q53.6281 800.413 56.8109 797.166 Q59.9619 793.888 59.9619 788.063 Q59.9619 784.689 59.1344 781.538 Q58.3069 778.356 56.6518 775.236 L62.1899 775.236 Q63.5267 778.387 64.227 781.698 Q64.9272 785.008 64.9272 788.413 Q64.9272 796.943 59.9619 801.94 Q54.9967 806.906 46.5303 806.906 Q37.7774 806.906 32.6531 802.195 Q27.4968 797.453 27.4968 789.432 Q27.4968 782.239 32.1438 778.069 Q36.7589 773.868 44.7161 773.868 M42.9973 779.724 Q38.1912 779.788 35.3266 782.43 Q32.4621 785.04 32.4621 789.368 Q32.4621 794.27 35.2312 797.23 Q38.0002 800.158 43.0292 800.604 L42.9973 779.724 Z" fill="#000000" fill-rule="evenodd" fill-opacity="1" /><path clip-path="url(#clip670)" d="M29.4065 741.53 L34.9447 741.53 Q33.6716 744.013 33.035 746.686 Q32.3984 749.36 32.3984 752.224 Q32.3984 756.585 33.7352 758.781 Q35.072 760.945 37.7456 760.945 Q39.7826 760.945 40.9603 759.386 Q42.1061 757.826 43.1565 753.116 L43.6021 751.11 Q44.9389 744.872 47.3897 742.262 Q49.8086 739.62 54.1691 739.62 Q59.1344 739.62 62.0308 743.567 Q64.9272 747.482 64.9272 754.357 Q64.9272 757.221 64.3543 760.341 Q63.8132 763.428 62.6992 766.865 L56.6518 766.865 Q58.3387 763.619 59.198 760.468 Q60.0256 757.317 60.0256 754.23 Q60.0256 750.092 58.6251 747.864 Q57.1929 745.636 54.6147 745.636 Q52.2276 745.636 50.9545 747.259 Q49.6813 748.85 48.5037 754.293 L48.0262 756.33 Q46.8804 761.773 44.5251 764.192 Q42.138 766.611 38.0002 766.611 Q32.9713 766.611 30.2341 763.046 Q27.4968 759.481 27.4968 752.925 Q27.4968 749.678 27.9743 746.813 Q28.4517 743.949 29.4065 741.53 Z" fill="#000000" fill-rule="evenodd" fill-opacity="1" /><path clip-path="url(#clip670)" d="M14.479 691.527 L19.3487 691.527 L19.3487 697.129 Q19.3487 700.28 20.6219 701.521 Q21.895 702.731 25.2052 702.731 L28.3562 702.731 L28.3562 693.087 L32.9077 693.087 L32.9077 702.731 L64.0042 702.731 L64.0042 708.619 L32.9077 708.619 L32.9077 714.221 L28.3562 714.221 L28.3562 708.619 L25.8736 708.619 Q19.9216 708.619 17.2162 705.85 Q14.479 703.081 14.479 697.065 L14.479 691.527 Z" fill="#000000" fill-rule="evenodd" fill-opacity="1" /><path clip-path="url(#clip670)" d="M33.8307 665.969 Q33.2578 666.956 33.0032 668.133 Q32.7167 669.279 32.7167 670.68 Q32.7167 675.645 35.9632 678.318 Q39.1779 680.96 45.2253 680.96 L64.0042 680.96 L64.0042 686.849 L28.3562 686.849 L28.3562 680.96 L33.8944 680.96 Q30.6479 679.114 29.0883 676.154 Q27.4968 673.194 27.4968 668.961 Q27.4968 668.356 27.5923 667.624 Q27.656 666.892 27.8151 666.001 L33.8307 665.969 Z" fill="#000000" fill-rule="evenodd" fill-opacity="1" /><path clip-path="url(#clip670)" d="M46.0847 643.625 Q46.0847 650.723 47.7079 653.46 Q49.3312 656.198 53.2461 656.198 Q56.3653 656.198 58.2114 654.161 Q60.0256 652.092 60.0256 648.559 Q60.0256 643.689 56.5881 640.761 Q53.1188 637.801 47.3897 637.801 L46.0847 637.801 L46.0847 643.625 M43.6657 631.944 L64.0042 631.944 L64.0042 637.801 L58.5933 637.801 Q61.8398 639.806 63.3994 642.798 Q64.9272 645.79 64.9272 650.118 Q64.9272 655.593 61.8716 658.839 Q58.7843 662.054 53.6281 662.054 Q47.6125 662.054 44.5569 658.044 Q41.5014 654.001 41.5014 646.013 L41.5014 637.801 L40.9285 637.801 Q36.8862 637.801 34.6901 640.474 Q32.4621 643.116 32.4621 647.922 Q32.4621 650.978 33.1941 653.874 Q33.9262 656.771 35.3903 659.444 L29.9795 659.444 Q28.7381 656.229 28.1334 653.206 Q27.4968 650.182 27.4968 647.317 Q27.4968 639.583 31.5072 635.764 Q35.5176 631.944 43.6657 631.944 Z" fill="#000000" fill-rule="evenodd" fill-opacity="1" /><path clip-path="url(#clip670)" d="M29.7248 594.227 L35.1993 594.227 Q33.8307 596.71 33.1623 599.225 Q32.4621 601.707 32.4621 604.253 Q32.4621 609.951 36.0905 613.102 Q39.6872 616.253 46.212 616.253 Q52.7369 616.253 56.3653 613.102 Q59.9619 609.951 59.9619 604.253 Q59.9619 601.707 59.2935 599.225 Q58.5933 596.71 57.2247 594.227 L62.6355 594.227 Q63.7814 596.678 64.3543 599.32 Q64.9272 601.93 64.9272 604.89 Q64.9272 612.943 59.8664 617.685 Q54.8057 622.428 46.212 622.428 Q37.491 622.428 32.4939 617.653 Q27.4968 612.847 27.4968 604.508 Q27.4968 601.803 28.0697 599.225 Q28.6108 596.646 29.7248 594.227 Z" fill="#000000" fill-rule="evenodd" fill-opacity="1" /><path clip-path="url(#clip670)" d="M18.2347 578.25 L28.3562 578.25 L28.3562 566.187 L32.9077 566.187 L32.9077 578.25 L52.2594 578.25 Q56.6199 578.25 57.8613 577.072 Q59.1026 575.862 59.1026 572.202 L59.1026 566.187 L64.0042 566.187 L64.0042 572.202 Q64.0042 578.982 61.4897 581.56 Q58.9434 584.138 52.2594 584.138 L32.9077 584.138 L32.9077 588.435 L28.3562 588.435 L28.3562 584.138 L18.2347 584.138 L18.2347 578.25 Z" fill="#000000" fill-rule="evenodd" fill-opacity="1" /><path clip-path="url(#clip670)" d="M28.3562 558.484 L28.3562 552.628 L64.0042 552.628 L64.0042 558.484 L28.3562 558.484 M14.479 558.484 L14.479 552.628 L21.895 552.628 L21.895 558.484 L14.479 558.484 Z" fill="#000000" fill-rule="evenodd" fill-opacity="1" /><path clip-path="url(#clip670)" d="M32.4621 526.56 Q32.4621 531.271 36.1542 534.008 Q39.8145 536.745 46.212 536.745 Q52.6095 536.745 56.3017 534.04 Q59.9619 531.302 59.9619 526.56 Q59.9619 521.881 56.2698 519.144 Q52.5777 516.407 46.212 516.407 Q39.8781 516.407 36.186 519.144 Q32.4621 521.881 32.4621 526.56 M27.4968 526.56 Q27.4968 518.921 32.4621 514.561 Q37.4273 510.2 46.212 510.2 Q54.9649 510.2 59.9619 514.561 Q64.9272 518.921 64.9272 526.56 Q64.9272 534.231 59.9619 538.591 Q54.9649 542.92 46.212 542.92 Q37.4273 542.92 32.4621 538.591 Q27.4968 534.231 27.4968 526.56 Z" fill="#000000" fill-rule="evenodd" fill-opacity="1" /><path clip-path="url(#clip670)" d="M42.4881 470.86 L64.0042 470.86 L64.0042 476.717 L42.679 476.717 Q37.6183 476.717 35.1038 478.69 Q32.5894 480.663 32.5894 484.61 Q32.5894 489.352 35.6131 492.09 Q38.6368 494.827 43.8567 494.827 L64.0042 494.827 L64.0042 500.715 L28.3562 500.715 L28.3562 494.827 L33.8944 494.827 Q30.6797 492.726 29.0883 489.894 Q27.4968 487.029 27.4968 483.305 Q27.4968 477.162 31.3163 474.011 Q35.1038 470.86 42.4881 470.86 Z" fill="#000000" fill-rule="evenodd" fill-opacity="1" /><polyline clip-path="url(#clip672)" style="stroke:#009af9; stroke-linecap:round; stroke-linejoin:round; stroke-width:4; stroke-opacity:1; fill:none" points="280.231,86.1857 280.708,86.4858 281.52,86.7859 282.064,87.0861 282.294,87.3862 282.356,87.6863 282.909,87.9864 283.45,88.2866 283.873,88.5867 285.018,88.8868 285.287,89.1869 285.43,89.4871 285.742,89.7872 285.749,90.0873 285.956,90.3875 286.055,90.6876 286.243,90.9877 286.635,91.2878 287.571,91.588 287.689,91.8881 287.796,92.1882 288.112,92.4884 288.173,92.7885 288.364,93.0886 288.58,93.3887 288.803,93.6889 288.862,93.989 289.157,94.2891 289.17,94.5892 289.469,94.8894 289.563,95.1895 289.767,95.4896 289.898,95.7898 290.31,96.0899 290.567,96.39 290.569,96.6901 290.792,96.9903 290.792,97.2904 290.796,97.5905 291.049,97.8907 291.177,98.1908 291.22,98.4909 291.592,98.791 291.775,99.0912 291.873,99.3913 291.925,99.6914 292.077,99.9915 292.56,100.292 293.48,100.592 293.513,100.892 293.527,101.192 293.644,101.492 293.891,101.792 293.959,102.092 294.27,102.393 294.514,102.693 294.755,102.993 294.8,103.293 295.108,103.593 295.465,103.893 295.636,104.193 295.824,104.493 296.146,104.794 296.364,105.094 296.878,105.394 296.906,105.694 296.929,105.994 297.069,106.294 297.249,106.594 297.25,106.894 297.364,107.195 297.49,107.495 297.789,107.795 298.242,108.095 298.266,108.395 298.817,108.695 298.902,108.995 298.956,109.296 299.379,109.596 299.394,109.896 299.792,110.196 300.182,110.496 300.232,110.796 300.465,111.096 300.673,111.396 300.711,111.697 300.753,111.997 300.975,112.297 301.104,112.597 301.474,112.897 301.477,113.197 301.859,113.497 302.005,113.797 302.046,114.098 302.083,114.398 302.189,114.698 302.331,114.998 302.381,115.298 302.409,115.598 302.562,115.898 302.68,116.198 302.767,116.499 302.84,116.799 303.037,117.099 303.654,117.399 304.029,117.699 304.036,117.999 304.327,118.299 305.282,118.599 305.289,118.9 305.359,119.2 306.395,119.5 306.558,119.8 306.851,120.1 306.991,120.4 307.078,120.7 307.24,121 307.307,121.301 307.736,121.601 308.129,121.901 308.201,122.201 308.228,122.501 308.313,122.801 308.675,123.101 309.028,123.402 309.116,123.702 309.602,124.002 309.618,124.302 309.682,124.602 309.684,124.902 309.857,125.202 310.057,125.502 310.075,125.803 310.632,126.103 310.881,126.403 311.274,126.703 311.278,127.003 311.33,127.303 311.513,127.603 311.56,127.903 311.615,128.204 311.737,128.504 311.798,128.804 311.94,129.104 312.074,129.404 312.147,129.704 312.17,130.004 312.239,130.304 313.456,130.605 313.467,130.905 313.8,131.205 313.889,131.505 314.725,131.805 315.068,132.105 315.117,132.405 315.177,132.705 315.321,133.006 315.474,133.306 315.478,133.606 315.556,133.906 315.59,134.206 315.74,134.506 315.759,134.806 315.934,135.106 316.183,135.407 316.359,135.707 316.486,136.007 316.701,136.307 316.717,136.607 316.772,136.907 317.074,137.207 317.212,137.508 317.404,137.808 317.615,138.108 317.827,138.408 317.842,138.708 318.241,139.008 318.283,139.308 318.433,139.608 318.664,139.909 318.787,140.209 318.797,140.509 318.808,140.809 319.012,141.109 319.16,141.409 319.213,141.709 319.255,142.009 319.841,142.31 319.88,142.91 319.914,143.21 319.962,143.51 320.204,144.11 320.345,144.41 320.54,144.711 320.672,145.011 320.881,145.311 321.018,145.611 321.32,145.911 321.34,146.211 321.355,146.511 321.644,146.811 321.713,147.112 321.78,147.412 321.99,147.712 322.333,148.012 322.382,148.312 322.402,148.612 322.481,148.912 322.893,149.213 322.994,149.513 323.433,149.813 323.479,150.113 323.541,150.413 323.641,150.713 323.683,151.013 323.816,151.313 323.838,151.614 323.924,151.914 324.049,152.214 324.157,152.514 324.247,152.814 324.53,153.114 324.695,153.414 324.737,153.714 325.116,154.015 325.229,154.315 325.254,154.615 325.258,154.915 325.795,155.215 325.84,155.515 325.893,155.815 326.086,156.115 326.377,156.416 326.456,156.716 326.477,157.016 326.544,157.316 326.727,157.616 327.23,157.916 327.343,158.216 327.354,158.516 327.613,158.817 327.811,159.117 327.865,159.417 327.893,159.717 327.933,160.017 327.944,160.317 328.208,160.617 328.254,160.917 328.316,161.218 328.423,161.518 328.646,161.818 328.664,162.118 328.827,162.418 328.852,162.718 328.956,163.018 329.084,163.319 329.177,163.619 329.228,163.919 329.379,164.519 329.409,164.819 329.463,165.119 329.549,165.419 329.559,166.02 329.653,166.32 329.697,166.62 329.827,166.92 329.855,167.22 330.08,167.52 330.214,167.82 330.227,168.121 330.29,168.421 330.364,168.721 330.424,169.021 330.693,169.321 330.715,169.621 330.836,169.921 330.873,170.221 330.921,170.522 331.196,170.822 331.331,171.122 331.415,171.422 331.515,171.722 331.537,172.022 331.673,172.322 331.784,172.622 332.009,172.923 332.036,173.223 332.062,173.523 332.07,173.823 332.132,174.123 332.145,174.423 332.29,174.723 332.34,175.023 332.695,175.324 332.863,175.624 333.017,175.924 333.125,176.224 333.437,176.524 333.438,176.824 333.533,177.124 333.669,177.425 333.772,177.725 333.774,178.025 333.936,178.325 334.122,178.625 334.256,178.925 334.326,179.225 334.477,179.525 334.863,179.826 335.406,180.126 335.481,180.426 335.503,180.726 336.124,181.326 336.202,181.626 336.291,181.926 336.992,182.227 337.096,182.527 337.198,182.827 337.314,183.127 337.488,183.427 337.542,183.727 337.653,184.027 337.878,184.327 337.886,184.628 338.17,184.928 338.245,185.228 338.445,185.528 338.484,185.828 338.595,186.128 338.599,186.428 338.636,186.728 338.642,187.029 338.691,187.329 338.756,187.629 338.873,187.929 338.987,188.229 339.01,188.529 339.028,188.829 339.638,189.129 339.902,189.43 340.072,189.73 340.296,190.03 340.352,190.33 340.448,190.63 340.625,190.93 340.634,191.23 340.717,191.531 340.829,191.831 340.899,192.131 341.237,192.431 341.275,192.731 341.372,193.031 341.505,193.331 341.612,193.631 341.658,193.932 341.885,194.232 341.961,194.532 342.008,194.832 342.124,195.132 342.168,195.432 342.217,195.732 342.383,196.032 342.652,196.333 342.885,196.633 342.906,196.933 342.931,197.233 343.33,197.533 343.965,197.833 344.043,198.133 344.254,198.433 344.655,198.734 344.842,199.034 345.022,199.334 345.139,199.634 345.339,199.934 345.476,200.234 345.555,200.534 345.855,200.834 346.118,201.135 346.163,201.435 346.566,201.735 346.61,202.035 346.683,202.635 346.791,202.935 347.019,203.236 347.273,203.536 347.383,203.836 347.482,204.136 347.917,204.436 348.327,204.736 348.472,205.036 348.533,205.336 348.605,205.637 348.939,205.937 349.066,206.237 349.263,206.537 349.307,206.837 349.52,207.137 349.744,207.437 349.845,207.737 349.88,208.038 349.986,208.338 350.022,208.638 350.046,208.938 350.133,209.238 350.182,209.538 350.871,209.838 351.082,210.138 351.332,210.439 351.416,210.739 352.011,211.039 352.094,211.639 352.206,211.939 352.312,212.239 352.383,212.539 352.406,212.84 352.648,213.14 352.669,213.44 352.74,213.74 352.852,214.04 352.96,214.34 353.007,214.64 353.022,214.94 353.306,215.241 353.512,215.541 353.538,215.841 353.578,216.141 354.257,216.441 354.412,216.741 354.494,217.041 354.534,217.342 354.756,217.642 354.803,217.942 354.837,218.242 354.968,218.542 355.052,218.842 355.082,219.142 355.096,219.442 355.428,219.743 355.585,220.043 355.598,220.343 355.657,220.643 355.703,220.943 355.734,221.243 355.84,221.543 356.052,221.843 356.101,222.144 356.5,222.444 356.554,222.744 356.642,223.044 356.731,223.344 356.781,223.644 356.893,223.944 357.031,224.244 357.102,224.545 357.319,225.145 357.352,225.445 357.584,225.745 357.622,226.045 357.707,226.345 357.797,226.645 357.835,226.946 357.882,227.246 358.021,227.546 358.222,227.846 358.398,228.146 358.404,228.446 358.563,228.746 358.695,229.046 358.873,229.347 358.888,229.647 358.919,229.947 359.029,230.247 359.091,230.547 359.173,230.847 359.263,231.147 359.308,231.448 359.394,231.748 359.695,232.048 359.739,232.348 360.076,232.648 360.079,232.948 360.225,233.248 360.317,233.548 360.684,233.849 360.773,234.149 360.796,234.449 360.818,234.749 360.858,235.049 361.297,235.349 361.326,235.649 361.695,235.949 361.709,236.25 361.807,236.55 361.912,236.85 362.36,237.15 362.534,237.45 362.579,237.75 362.923,238.05 363.141,238.35 363.257,238.651 363.318,238.951 363.378,239.251 363.623,239.851 363.643,240.151 363.839,240.451 363.959,240.751 363.962,241.052 363.975,241.352 364.151,241.652 364.201,241.952 364.26,242.252 364.424,242.552 364.521,242.852 364.528,243.152 364.564,243.453 364.604,243.753 364.612,244.053 364.638,244.353 364.954,244.653 364.996,244.953 365.027,245.253 365.281,245.554 365.329,245.854 365.462,246.154 365.492,246.454 365.559,246.754 365.664,247.054 365.818,247.354 366.003,247.654 366.11,247.955 366.24,248.255 366.351,248.555 366.409,249.155 366.702,249.455 366.739,249.755 367.135,250.055 367.176,250.356 367.266,250.656 367.463,250.956 367.716,251.856 367.763,252.156 367.768,252.456 367.87,252.757 368.098,253.057 368.291,253.357 368.305,253.657 368.329,253.957 368.81,254.257 368.823,254.557 369.003,255.158 369.14,255.458 369.356,255.758 369.385,256.058 369.414,256.358 369.498,256.658 369.593,256.958 369.755,257.258 369.945,257.559 369.993,257.859 370.124,258.159 370.128,258.459 370.477,258.759 370.651,259.059 371.417,259.359 371.434,259.66 372.271,259.96 372.324,260.26 372.375,260.56 372.557,260.86 372.682,261.16 372.715,261.46 372.97,261.76 373.054,262.061 373.122,262.361 373.138,262.661 373.145,262.961 373.192,263.261 373.279,263.561 373.525,263.861 373.665,264.161 373.692,264.462 373.846,264.762 373.895,265.062 374.115,265.362 374.506,265.662 374.592,265.962 374.614,266.262 374.778,266.562 374.921,266.863 375.091,267.163 375.189,267.463 375.333,267.763 375.404,268.063 375.457,268.363 375.585,268.663 375.822,268.963 375.845,269.264 376.048,269.564 376.116,269.864 376.121,270.164 376.217,270.464 376.255,270.764 376.317,271.064 376.485,271.365 376.636,271.665 376.93,271.965 377.12,272.265 377.234,272.565 377.24,272.865 377.288,273.165 377.551,273.465 377.674,273.766 377.819,274.066 377.856,274.366 377.903,274.666 378.044,275.266 378.138,275.566 378.385,275.866 378.535,276.167 378.609,276.467 378.678,276.767 378.987,277.067 379.202,277.667 379.515,277.967 379.773,278.267 379.875,278.568 379.973,278.868 380.339,279.168 380.355,279.468 380.449,279.768 380.454,280.068 380.454,280.368 380.526,280.668 380.68,280.969 380.774,281.269 380.839,281.569 380.883,281.869 380.931,282.169 381.298,282.469 381.301,282.769 381.423,283.069 381.607,283.37 381.657,283.67 381.726,283.97 381.934,284.27 382.037,284.57 382.174,284.87 382.268,285.17 382.373,285.771 382.39,286.071 382.499,286.371 382.544,286.671 382.772,286.971 383.126,287.271 383.504,287.571 383.708,287.872 383.847,288.172 383.884,288.472 384.109,288.772 384.219,289.072 384.308,289.672 384.366,289.972 384.38,290.273 384.514,290.573 384.847,290.873 384.942,291.173 384.953,291.473 384.958,291.773 385.031,292.073 385.049,292.373 385.112,292.674 385.601,292.974 385.776,293.274 385.966,293.574 386.134,293.874 386.289,294.174 386.565,294.474 386.676,294.774 386.72,295.075 386.724,295.375 386.735,295.675 386.798,295.975 386.857,296.275 387.18,296.575 387.207,296.875 387.261,297.175 387.382,297.476 387.575,297.776 387.583,298.076 387.874,298.376 388.28,298.676 388.316,298.976 388.455,299.276 388.509,299.577 388.652,299.877 388.663,300.177 388.801,300.477 388.902,300.777 388.917,301.077 388.937,301.377 389.073,301.677 389.129,301.978 389.249,302.278 389.264,302.578 389.381,302.878 389.736,303.178 390.11,303.478 390.159,303.778 390.179,304.078 390.255,304.379 390.271,304.679 390.299,304.979 390.486,305.279 390.603,305.579 390.654,305.879 390.978,306.179 391.138,306.479 391.152,306.78 391.629,307.08 391.818,307.38 392.099,307.68 392.228,307.98 392.24,308.28 392.753,308.58 393.32,308.88 393.393,309.181 393.679,309.481 393.948,309.781 393.962,310.081 393.991,310.381 394.127,310.681 394.361,310.981 394.628,311.281 394.694,311.582 394.779,311.882 394.959,312.182 395.09,312.482 395.116,312.782 395.2,313.082 395.212,313.382 395.248,313.683 395.261,313.983 395.321,314.283 395.683,314.583 395.965,314.883 396.05,315.183 396.204,315.483 396.317,316.084 396.389,316.384 396.936,316.684 396.942,316.984 397.141,317.284 397.226,317.584 397.241,317.884 397.49,318.184 397.534,318.485 397.949,318.785 398.029,319.085 398.351,319.385 398.369,319.685 398.384,319.985 398.479,320.285 398.925,320.585 399.044,320.886 399.271,321.486 399.328,321.786 399.8,322.086 400.265,322.386 400.315,322.686 400.397,322.986 401.079,323.287 401.082,323.887 401.333,324.187 401.462,324.487 401.95,324.787 402.539,325.087 402.779,325.388 403.039,325.988 403.074,326.288 403.111,326.588 403.239,326.888 403.425,327.488 403.528,327.789 403.552,328.089 403.715,328.389 403.97,328.689 404.438,328.989 404.489,329.289 404.603,329.589 404.849,329.889 405.168,330.19 405.389,330.49 405.499,330.79 405.618,331.09 405.721,331.39 405.8,331.69 405.991,332.29 406.042,332.591 406.23,332.891 406.245,333.191 406.283,333.491 406.599,333.791 406.71,334.091 406.725,334.391 406.805,334.691 406.925,334.992 407.15,335.292 407.373,335.592 407.477,335.892 407.639,336.192 407.698,336.492 407.73,336.792 407.785,337.092 408.112,337.393 408.278,337.693 408.315,337.993 408.579,338.293 408.607,338.593 408.905,338.893 408.923,339.193 409.04,339.494 409.216,339.794 409.452,340.094 409.712,340.394 409.738,340.694 409.787,340.994 409.812,341.594 409.913,341.895 410.004,342.195 410.048,342.495 410.096,342.795 410.179,343.095 410.224,343.395 410.719,343.695 410.735,343.995 410.81,344.296 410.824,344.596 411.021,344.896 411.103,345.196 411.119,345.496 411.311,345.796 411.317,346.096 411.459,346.396 411.679,346.997 411.722,347.297 411.754,347.597 411.808,347.897 411.828,348.197 412.199,348.497 412.279,348.797 412.299,349.098 412.356,349.398 412.491,349.698 412.61,349.998 412.789,350.298 412.797,350.598 412.992,350.898 413.153,351.198 413.425,351.499 413.686,351.799 413.801,352.099 413.851,352.399 413.994,352.699 414.225,352.999 414.375,353.299 414.535,353.6 414.57,353.9 414.928,354.5 414.955,354.8 415.017,355.1 415.022,355.4 415.053,355.7 415.067,356.001 415.124,356.301 415.161,356.601 415.193,356.901 415.243,357.201 415.352,357.501 415.66,357.801 415.665,358.101 415.787,358.402 416.033,358.702 416.162,359.002 416.18,359.302 416.319,359.602 416.523,359.902 416.601,360.202 416.715,360.502 416.803,360.803 417.04,361.103 417.113,361.403 417.193,361.703 417.304,362.003 417.323,362.303 417.513,362.603 417.551,362.903 417.62,363.204 417.815,363.504 417.89,363.804 418.312,364.104 418.32,364.404 418.389,364.704 418.405,365.004 418.524,365.304 418.671,365.605 419.001,365.905 419.04,366.205 419.506,366.505 419.631,366.805 419.656,367.105 419.796,367.405 419.964,367.706 420.111,368.006 420.114,368.306 420.136,368.606 420.163,368.906 420.18,369.206 420.382,369.506 420.465,369.806 420.649,370.107 420.72,370.407 420.731,370.707 420.999,371.007 421.016,371.307 421.117,371.607 421.29,372.207 421.298,372.808 421.426,373.108 421.599,373.408 421.601,373.708 421.675,374.008 421.711,374.308 422.311,374.608 422.348,374.909 422.372,375.209 422.782,375.509 422.792,375.809 422.92,376.109 423.125,376.409 423.171,377.31 423.276,377.61 423.418,377.91 423.454,378.21 423.512,378.51 423.539,378.81 423.72,379.11 423.957,379.711 424.042,380.011 424.269,380.311 424.601,380.611 424.672,380.911 424.694,381.211 425.172,381.511 425.294,381.812 425.358,382.112 425.579,382.412 426.132,382.712 426.414,383.012 426.876,383.312 426.987,383.612 427.007,383.912 427.137,384.213 427.164,384.513 427.347,384.813 427.421,385.113 427.739,385.413 428.1,385.713 428.118,386.013 428.312,386.313 428.334,386.614 428.456,386.914 428.514,387.214 428.63,387.514 429.059,387.814 429.09,388.114 429.362,388.414 429.507,388.714 429.556,389.015 429.816,389.315 429.907,389.615 430.146,389.915 430.157,390.215 430.194,390.515 430.46,390.815 430.747,391.115 430.842,391.416 431.031,391.716 431.143,392.316 431.278,392.616 431.901,392.916 432.078,393.216 432.1,393.517 432.159,393.817 432.296,394.117 432.446,394.417 432.915,394.717 433.33,395.017 433.475,395.317 433.791,395.617 433.831,395.918 433.887,396.218 433.941,396.518 434.14,396.818 434.297,397.118 434.375,397.418 434.581,397.718 434.594,398.018 434.672,398.319 434.957,398.619 435.013,398.919 435.29,399.219 435.3,399.519 435.439,399.819 435.51,400.119 435.779,400.419 435.785,400.72 435.934,401.02 435.971,401.32 436.093,401.62 436.235,401.92 436.263,402.22 436.399,402.52 436.426,402.82 436.462,403.121 436.527,403.421 436.539,403.721 436.716,404.021 436.732,404.321 436.893,404.621 437.117,404.921 437.143,405.221 437.159,405.522 437.233,405.822 437.278,406.122 437.475,406.422 437.541,406.722 437.649,407.022 437.732,407.322 437.842,407.623 438.144,407.923 438.217,408.223 438.445,408.523 438.491,408.823 438.518,409.123 439.23,409.423 439.332,409.723 439.409,410.024 439.537,410.324 439.653,410.624 439.886,410.924 439.936,411.224 440.014,411.524 440.12,411.824 440.162,412.124 440.776,412.425 440.898,412.725 440.996,413.025 441.257,413.325 441.345,413.625 441.434,413.925 441.511,414.225 441.599,414.525 441.665,414.826 441.781,415.126 442.348,415.726 442.388,416.026 443.095,416.326 443.546,416.626 443.932,416.926 444.053,417.227 444.192,417.527 444.369,417.827 444.381,418.127 444.637,418.427 444.639,418.727 444.814,419.327 445.026,419.628 445.162,419.928 445.331,420.228 445.383,420.528 445.393,420.828 445.516,421.128 445.567,421.428 445.614,421.729 445.667,422.329 445.789,422.629 445.921,422.929 445.938,423.529 446.051,423.829 446.137,424.13 446.801,424.43 446.818,424.73 446.87,425.03 446.9,425.33 447.179,425.63 447.267,425.93 447.306,426.23 447.325,426.531 447.368,426.831 447.462,427.131 447.657,427.431 447.686,427.731 447.729,428.031 447.774,428.331 447.911,428.631 448.105,428.932 448.549,429.232 448.677,429.532 448.753,429.832 448.789,430.132 449.591,430.432 449.754,430.732 449.825,431.032 449.912,431.333 449.931,431.633 450.076,431.933 450.287,432.233 450.291,432.533 450.444,432.833 450.491,433.133 450.846,433.433 451.127,433.734 451.236,434.034 451.33,434.334 451.479,434.634 451.553,434.934 451.652,435.234 452.211,435.534 452.274,435.835 452.363,436.135 452.505,436.435 452.702,436.735 452.736,437.035 452.807,437.335 452.992,437.635 453,437.935 453.069,438.236 453.097,438.536 453.32,439.136 453.435,439.436 453.869,439.736 453.879,440.036 454.009,440.336 454.121,441.237 454.36,441.537 454.431,441.837 454.84,442.137 454.915,442.437 455.173,442.737 455.261,443.038 455.523,443.338 456.063,443.638 456.158,443.938 456.479,444.238 457.254,444.538 457.341,444.838 457.39,445.138 457.402,445.739 457.468,446.039 457.513,446.339 457.775,446.639 458.124,446.939 458.208,447.239 458.211,447.54 458.374,447.84 458.614,448.14 458.917,448.44 458.976,448.74 459.09,449.04 459.232,449.34 459.475,449.64 459.721,449.941 460.118,450.241 460.266,450.541 460.367,450.841 460.425,451.441 460.643,451.741 460.744,452.041 460.798,452.342 460.978,452.642 461.016,452.942 461.034,453.542 461.111,453.842 461.38,454.142 461.559,454.442 461.743,454.743 461.823,455.043 461.975,455.343 461.994,455.643 462.067,455.943 462.095,456.243 462.182,456.543 462.311,456.843 462.494,457.144 462.507,457.444 462.611,457.744 462.735,458.044 463.134,458.344 463.155,458.944 463.458,459.244 463.751,459.545 463.805,459.845 463.85,460.145 463.881,460.445 463.95,460.745 464.138,461.345 464.234,461.646 464.309,461.946 464.532,462.246 464.727,462.546 464.737,462.846 465.021,463.146 465.391,463.446 465.749,463.746 465.969,464.047 466.173,464.347 466.237,464.647 466.239,464.947 466.287,465.247 466.437,465.547 466.542,465.847 466.595,466.147 466.655,466.448 466.789,466.748 466.87,467.048 467.161,467.348 467.164,467.648 467.409,467.948 467.554,468.248 467.57,468.548 467.608,468.849 467.831,469.149 468.204,469.449 468.243,469.749 468.503,470.049 468.63,470.349 468.871,470.649 469.04,470.949 469.656,471.25 470.05,471.55 470.169,471.85 470.268,472.15 470.333,472.45 470.375,472.75 470.472,473.35 470.516,473.651 470.668,473.951 470.836,474.251 471.12,474.551 471.398,474.851 471.865,475.151 472.112,475.451 472.181,475.752 472.329,476.052 472.476,476.352 472.56,476.652 472.608,476.952 472.901,477.252 472.949,477.552 473.074,477.852 473.295,478.153 473.341,478.453 473.445,478.753 473.481,479.053 473.489,479.353 473.607,479.653 473.636,479.953 473.685,480.253 473.8,480.554 473.875,480.854 473.936,481.154 473.948,481.754 474.57,482.054 474.587,482.354 474.62,482.654 474.803,482.955 474.956,483.255 475.181,483.555 475.306,483.855 475.335,484.155 475.624,484.455 475.884,485.055 475.991,485.356 476.105,485.656 476.221,485.956 476.25,486.256 476.266,486.556 476.288,486.856 476.539,487.156 476.748,487.456 476.846,487.757 477.183,488.057 477.502,488.357 477.744,488.657 477.881,488.957 478.332,489.257 478.351,489.858 478.613,490.158 478.709,490.458 478.867,490.758 479.314,491.058 479.415,491.358 479.42,491.658 479.465,491.958 479.655,492.259 480.115,492.559 480.235,492.859 481.037,493.159 481.146,493.459 481.447,494.059 482.234,494.359 482.783,494.66 482.798,495.26 482.835,495.56 483.435,495.86 483.48,496.16 483.949,496.46 484.363,496.76 484.858,497.061 484.887,497.361 485.278,497.661 485.353,497.961 485.363,498.261 485.383,498.561 485.442,500.362 485.443,500.962 485.454,501.262 485.639,501.563 485.808,502.163 486.2,502.463 486.312,502.763 486.499,503.063 486.507,503.363 486.606,503.663 487.008,503.964 487.184,504.264 487.67,504.564 488.657,504.864 488.802,505.164 489.131,505.464 489.237,505.764 489.287,506.064 489.331,506.365 489.342,506.665 489.484,506.965 489.496,507.265 489.773,507.565 490.378,507.865 490.482,508.165 490.593,508.465 490.749,508.766 491.339,509.066 491.343,509.366 491.402,509.666 491.483,509.966 491.713,510.266 492.037,510.566 492.386,510.866 492.398,511.167 492.414,511.467 492.422,511.767 492.552,512.067 492.915,512.367 492.993,512.667 493.026,512.967 493.056,513.568 493.144,513.868 494.004,514.168 494.045,514.468 494.429,514.768 494.701,515.068 494.824,515.368 494.861,515.669 495.203,515.969 495.382,516.269 495.543,516.869 495.558,517.169 495.642,517.469 495.718,517.769 495.739,518.07 495.82,518.67 495.949,518.97 495.968,519.27 496.095,519.57 496.205,519.87 496.261,520.17 496.302,520.471 496.491,520.771 496.655,521.071 496.786,521.371 497.029,521.971 497.313,522.271 497.948,522.571 498.042,523.172 498.193,523.472 498.417,523.772 498.499,524.072 498.864,524.372 498.944,524.972 498.973,525.273 499.127,525.573 499.171,525.873 499.505,526.173 499.602,526.773 499.64,527.073 499.661,527.373 499.853,527.674 499.974,527.974 500.13,528.274 500.139,528.574 500.198,528.874 500.219,529.174 500.815,529.474 501.001,529.775 501.078,530.075 501.22,530.375 501.239,530.675 501.24,530.975 501.348,531.275 501.569,531.875 501.85,532.176 502.263,532.476 502.367,532.776 502.407,533.076 502.498,533.376 502.681,533.676 502.936,533.976 503.076,534.276 503.188,534.577 503.804,534.877 503.936,535.177 504.362,535.477 504.809,535.777 504.816,536.077 504.975,536.377 505.12,536.677 505.225,536.978 505.593,537.278 506.033,537.578 506.189,537.878 506.471,538.178 506.498,539.078 506.904,539.379 506.923,539.679 507.086,539.979 507.166,540.579 507.295,540.879 507.41,541.479 507.722,541.78 507.77,542.08 507.851,542.38 508.122,542.68 508.182,542.98 508.501,543.28 508.638,543.58 508.779,543.881 508.941,544.181 509.078,544.481 509.093,544.781 509.175,545.081 509.203,545.381 509.216,545.681 509.241,545.981 509.371,546.282 509.679,546.582 509.755,546.882 509.806,547.182 510.024,547.482 510.287,547.782 510.329,548.082 510.377,548.382 510.741,548.683 510.94,548.983 511.078,549.283 511.105,549.583 511.199,550.183 511.324,550.483 511.615,550.783 511.791,551.084 511.847,551.384 511.851,551.684 512.241,551.984 512.311,552.284 512.46,552.584 512.518,552.884 512.523,553.184 513.148,553.485 513.65,553.785 513.686,554.085 513.719,554.385 513.853,554.685 513.901,554.985 513.927,555.285 513.997,555.585 514.099,555.886 514.345,556.486 514.405,556.786 514.777,557.386 514.953,557.686 514.983,557.987 515.276,558.287 515.571,558.587 515.616,559.187 515.846,559.487 515.965,559.787 515.988,560.087 516.111,560.388 516.385,560.688 516.389,560.988 516.699,561.288 516.83,561.588 517.114,561.888 517.445,562.188 517.993,562.488 518.066,562.789 518.108,563.089 518.465,563.389 518.653,563.689 518.795,563.989 518.827,564.289 518.867,564.589 519.118,564.889 519.129,565.19 519.281,565.49 519.457,565.79 519.596,566.09 519.621,566.39 519.689,566.69 519.727,566.99 519.774,567.29 519.947,567.591 520.042,567.891 520.064,568.191 520.142,568.491 520.233,568.791 520.764,569.091 520.858,569.391 520.93,569.692 521.002,569.992 521.024,570.292 521.048,570.592 521.069,570.892 521.123,571.192 521.297,571.492 521.31,571.792 521.455,572.093 522.002,572.393 522.157,572.693 522.326,574.494 522.392,574.794 522.436,575.094 522.66,575.394 522.775,575.694 523.002,575.994 523.256,576.294 523.305,576.594 523.478,576.895 523.638,577.195 524.129,577.495 524.194,577.795 524.425,578.095 524.482,578.395 524.551,578.695 524.596,578.995 524.797,579.296 524.871,579.596 524.953,579.896 525.183,580.196 525.19,580.496 525.29,580.796 525.53,581.096 525.69,581.396 525.881,581.697 525.991,581.997 526.139,582.297 526.288,582.597 526.632,582.897 526.883,583.197 526.914,583.497 526.933,583.798 527.154,584.098 527.178,584.398 527.457,584.998 528.209,585.298 528.286,585.598 528.45,585.898 528.479,586.199 528.489,586.499 528.553,586.799 528.646,587.099 528.867,587.399 528.885,587.699 528.953,587.999 529.057,588.299 529.169,588.6 529.431,588.9 529.444,589.2 529.992,589.5 530.5,589.8 530.633,590.1 530.755,590.4 530.799,593.402 530.802,593.702 531.025,594.002 531.228,594.302 531.331,594.602 531.39,594.902 531.751,595.502 532.182,595.803 532.576,596.103 532.623,596.403 532.679,597.003 533.665,597.303 533.72,597.603 533.725,597.904 534.017,598.204 534.362,598.504 534.742,598.804 534.876,599.104 535.001,599.404 535.228,599.704 535.39,600.004 535.621,600.305 536.178,600.605 536.285,600.905 536.761,601.205 536.815,601.505 537.103,601.805 537.326,602.105 537.434,602.405 537.523,602.706 537.539,603.006 537.711,603.306 537.859,603.606 537.886,603.906 538.1,604.206 538.2,604.506 538.335,604.806 538.372,605.107 538.822,605.407 538.98,605.707 539.02,606.007 539.244,606.307 539.373,606.607 539.637,607.207 539.722,607.508 539.865,607.808 540.012,608.108 540.191,608.408 540.989,608.708 541.067,609.308 541.2,609.608 541.223,609.909 541.242,610.209 541.63,610.809 541.953,611.109 541.975,611.409 542.192,611.709 542.319,612.01 542.331,612.31 542.687,612.61 542.769,612.91 543.085,613.21 543.213,613.51 543.229,613.81 543.36,614.11 543.409,614.411 543.425,615.011 543.603,615.311 543.833,615.611 543.926,615.911 544.131,616.211 544.552,616.511 544.776,616.812 544.989,617.112 545.155,617.412 545.47,617.712 545.531,618.012 545.724,618.312 545.776,618.612 546.124,618.912 546.175,619.213 546.327,619.513 546.448,619.813 546.455,620.113 546.582,620.413 546.815,620.713 546.869,621.013 546.903,621.313 546.919,621.614 547.352,623.715 547.391,624.015 547.471,624.315 547.642,624.615 548.084,624.915 548.211,625.215 548.216,625.515 548.223,625.815 548.309,626.116 548.416,626.416 548.519,627.016 548.786,627.316 549.097,627.616 549.183,627.916 549.365,628.216 549.382,628.517 549.509,628.817 549.773,629.417 549.818,629.717 549.826,630.017 549.902,630.317 550.64,630.617 550.757,630.918 550.839,631.218 550.847,631.518 550.889,631.818 551.038,632.118 551.072,632.418 551.564,632.718 551.876,633.319 552.074,633.619 552.145,634.519 552.323,634.819 552.711,635.119 553.015,635.419 553.05,635.72 553.078,636.02 553.268,636.32 553.375,636.62 553.412,636.92 553.66,637.22 553.962,637.52 553.99,637.821 554.069,638.121 554.108,638.421 554.213,638.721 554.589,639.021 554.673,639.321 554.731,639.621 554.86,639.921 554.866,640.222 554.959,640.522 555.063,640.822 555.358,641.122 555.579,641.422 555.779,641.722 555.825,642.022 555.959,642.322 556.399,642.623 556.809,642.923 556.835,643.223 557.209,643.523 557.221,643.823 557.293,644.123 557.591,644.423 557.77,644.723 557.836,645.024 558.031,645.324 558.113,645.624 558.275,645.924 558.509,646.524 558.566,646.824 558.738,647.124 558.838,647.425 559.102,647.725 559.102,648.025 559.117,648.325 559.337,648.625 559.375,648.925 559.656,649.225 559.857,649.525 559.948,649.826 559.97,650.126 560.068,650.426 560.225,650.726 560.32,651.026 560.405,651.626 560.931,651.927 560.957,652.227 560.998,652.827 561.208,653.127 561.389,653.427 561.592,653.727 561.756,654.027 562,654.328 562.542,654.628 562.739,654.928 562.805,655.228 562.958,655.528 563.043,655.828 563.468,656.128 563.532,656.428 563.556,656.729 563.763,657.029 564.175,657.329 564.286,657.629 564.391,657.929 564.597,658.229 564.632,658.529 564.74,658.829 564.76,659.13 564.779,659.43 564.863,659.73 565.021,660.03 565.139,660.33 565.24,660.63 565.419,660.93 565.499,661.23 565.892,661.531 566.188,661.831 566.364,662.131 566.443,662.731 566.988,663.031 567.268,663.331 567.438,663.631 567.525,663.932 567.683,665.432 567.985,665.732 568.212,666.033 568.336,666.333 568.699,666.633 568.932,666.933 569.266,667.233 569.404,667.533 569.772,667.833 570.302,668.133 570.446,668.434 570.646,668.734 570.812,669.034 570.876,669.634 570.94,669.934 571.119,670.234 571.393,670.534 571.396,670.835 571.43,671.135 571.752,671.435 572.269,671.735 572.666,672.035 572.701,672.335 572.909,672.635 573.264,672.935 574.245,673.236 574.323,673.536 574.42,673.836 574.462,674.136 574.775,674.436 575.247,674.736 575.348,675.036 575.594,675.336 575.603,675.637 575.681,675.937 575.767,676.237 576.137,676.537 576.175,676.837 576.315,677.137 576.414,677.437 576.542,677.738 576.76,678.038 577.338,678.338 577.523,678.638 577.536,678.938 577.675,679.238 577.804,679.838 577.92,680.139 578.144,680.439 578.545,680.739 578.586,681.039 578.89,681.339 578.937,681.639 579.273,681.939 579.471,682.239 579.618,682.54 580.054,682.84 580.079,683.14 580.899,683.44 581.018,683.74 581.064,684.04 581.263,684.34 581.284,684.64 581.453,684.941 581.507,685.241 581.669,685.541 581.757,685.841 582.367,686.141 582.487,686.441 582.735,686.741 582.932,687.041 583.032,687.342 583.409,687.642 583.953,687.942 584.32,688.242 584.434,688.542 584.509,688.842 584.671,689.142 584.774,689.442 585.104,689.743 585.334,690.043 585.338,690.343 585.446,690.643 586,690.943 586.134,691.243 586.19,691.543 586.469,691.844 586.516,692.144 586.674,692.444 586.681,692.744 587.251,693.044 587.281,693.344 587.719,693.644 588.167,693.944 588.195,694.245 588.206,694.545 588.339,694.845 588.4,695.145 588.795,695.445 589.105,695.745 589.34,696.045 589.346,696.345 589.587,696.646 589.794,696.946 589.996,697.246 590.221,697.546 590.269,697.846 590.47,698.146 590.75,698.446 590.932,698.746 591.382,699.047 591.39,699.947 591.615,700.247 591.637,700.547 591.791,700.847 591.928,701.147 592.271,701.448 592.463,701.748 592.649,702.048 593.012,702.348 593.026,702.648 593.828,702.948 594.081,703.248 594.366,703.548 594.631,703.849 594.773,704.149 594.851,704.449 594.982,704.749 595.186,705.049 595.266,705.349 596.064,705.649 596.093,705.95 596.256,706.25 596.553,706.55 596.585,706.85 596.733,707.15 597.308,707.45 597.379,707.75 597.457,708.05 598.043,708.351 598.103,708.651 598.124,708.951 598.193,709.251 598.235,709.551 598.293,709.851 598.767,710.151 598.779,710.451 599.11,710.752 599.169,711.052 599.504,711.352 599.622,711.652 599.827,711.952 600.192,712.252 600.347,712.552 601.253,712.852 601.297,713.153 601.367,713.453 601.5,713.753 601.67,714.053 601.837,714.353 602.123,714.653 602.299,714.953 602.641,715.253 602.763,715.554 602.783,715.854 602.902,716.154 603.006,716.454 603.037,716.754 603.428,717.054 603.538,717.354 603.614,717.955 603.991,718.255 604.027,718.555 604.059,718.855 604.082,719.155 604.282,719.455 604.436,719.755 604.518,720.056 604.773,720.356 605.045,720.656 605.141,720.956 605.899,721.256 605.907,721.556 606.243,721.856 606.301,722.156 606.513,722.457 606.527,722.757 606.79,723.057 607.092,723.357 607.772,723.657 607.961,723.957 608.486,724.257 608.625,724.557 608.747,724.858 609.286,725.158 609.797,725.458 610.054,725.758 610.418,726.058 611.083,726.358 611.605,726.658 611.814,726.958 612.326,727.259 612.335,727.559 612.494,727.859 612.542,728.159 612.623,728.459 612.739,728.759 612.853,729.059 614.152,729.359 614.84,729.66 615.088,729.96 615.591,732.061 616.779,732.361 616.857,732.661 617.117,732.961 617.155,733.261 617.235,733.561 617.323,733.861 617.431,734.162 617.793,734.462 618.007,734.762 618.274,735.062 618.296,735.362 618.33,735.662 618.38,735.962 618.785,736.262 618.936,736.563 618.951,736.863 619.121,737.163 619.611,737.763 619.632,738.063 619.88,738.363 619.967,738.663 620.314,738.964 620.499,739.264 620.544,739.564 620.861,739.864 620.892,740.164 621.508,740.464 621.601,740.764 621.877,741.064 621.971,741.365 622.599,741.665 622.849,741.965 622.882,742.265 623.027,742.565 623.083,742.865 623.236,743.165 623.475,743.465 623.617,745.867 623.952,746.167 624.132,746.467 624.23,746.767 624.416,747.067 624.631,747.367 625.147,747.667 625.292,747.967 625.54,748.268 625.556,748.568 625.753,748.868 625.865,749.168 625.878,749.468 625.922,749.768 626.323,750.068 626.334,750.368 626.586,751.269 626.871,751.569 627.155,751.869 627.276,752.169 627.298,752.469 628.047,752.769 628.388,753.07 628.457,753.37 628.49,753.67 628.583,753.97 628.657,754.27 628.723,754.57 628.777,754.87 628.893,755.17 628.943,755.471 629.279,755.771 629.303,756.071 629.323,756.371 629.341,756.671 629.729,756.971 629.853,757.271 630.607,757.571 630.651,757.872 630.786,758.172 630.874,758.472 631.01,758.772 631.089,759.072 631.106,759.372 631.231,759.672 631.287,759.973 631.7,760.273 631.733,760.573 632.05,760.873 632.161,761.173 632.359,761.473 632.781,761.773 632.878,762.073 633.371,762.374 633.53,762.674 633.794,762.974 633.806,763.274 633.994,763.574 634.017,763.874 634.179,764.174 634.259,764.474 634.44,764.775 634.849,765.075 635.424,765.375 635.874,765.675 636.101,765.975 636.466,766.275 636.816,766.575 637.039,766.875 637.105,767.176 637.721,767.476 637.737,767.776 637.814,768.076 638.05,768.376 638.131,769.276 638.934,769.577 639.171,769.877 639.278,770.177 639.638,770.477 639.658,770.777 639.921,772.578 639.941,772.878 640.15,773.178 640.356,773.478 640.371,773.778 640.395,774.079 640.698,774.379 640.792,774.679 640.901,775.279 641.217,775.579 641.288,775.879 641.388,776.179 642.207,776.48 642.262,776.78 642.309,777.08 642.323,777.38 642.338,777.68 642.407,777.98 643,778.28 643.155,778.58 643.233,778.881 643.418,779.181 643.538,779.481 643.718,779.781 643.754,780.081 643.863,780.381 644.542,780.681 644.582,780.981 644.653,781.282 644.978,781.582 645.009,781.882 645.228,782.182 646.078,782.782 646.591,783.082 646.773,783.382 646.996,783.683 647.154,783.983 647.255,784.283 647.39,784.583 647.629,784.883 647.749,785.183 647.777,785.483 648.309,786.084 648.374,786.384 648.577,786.684 648.666,786.984 648.715,787.284 648.795,787.584 648.853,787.884 649.082,788.185 649.096,788.485 649.127,788.785 649.358,789.085 649.404,789.385 650.092,789.685 650.283,789.985 650.441,790.285 650.911,790.586 651.326,790.886 651.523,791.186 651.555,791.486 651.904,791.786 651.969,792.086 652.061,792.386 652.113,792.686 652.16,792.987 652.239,793.287 652.753,793.587 653.075,793.887 653.272,794.187 653.581,794.487 653.822,794.787 653.862,795.087 653.918,795.688 654.042,795.988 654.075,796.288 654.172,796.588 654.252,796.888 654.301,797.188 654.316,797.488 654.586,797.789 654.909,798.089 654.927,798.389 655.027,798.689 655.168,798.989 655.38,799.289 655.515,799.589 655.834,799.89 656.7,800.19 656.763,800.49 657.511,801.09 657.61,801.69 657.88,801.99 658.184,802.291 658.292,802.591 658.347,802.891 658.517,803.191 658.611,803.491 659.12,803.791 659.141,804.091 659.179,804.391 659.486,804.692 659.859,804.992 660.306,805.292 660.396,805.592 660.91,805.892 661.482,806.192 662.081,806.492 662.256,806.792 662.454,807.093 662.649,807.393 662.745,807.693 662.912,807.993 663.044,808.293 663.088,808.593 663.5,809.494 663.844,809.794 664.13,810.094 664.371,810.394 664.506,810.694 664.576,810.994 664.766,811.294 665.119,811.594 665.319,811.895 665.402,812.195 665.499,812.495 666.125,812.795 666.48,813.095 666.843,813.395 667.151,813.695 667.185,813.996 667.303,814.296 667.666,814.596 667.676,814.896 667.756,815.496 668.132,815.796 668.152,816.096 668.944,816.397 669.054,816.697 669.243,816.997 669.396,817.297 669.432,817.597 669.681,817.897 670.65,818.197 671.015,818.497 671.036,818.798 671.114,819.098 671.626,819.398 671.787,819.698 672.088,822.099 672.109,822.399 672.324,822.699 672.401,822.999 672.75,823.299 672.848,823.6 673.049,823.9 673.194,824.2 673.273,824.5 673.604,824.8 674.373,825.1 674.629,825.4 674.772,825.7 674.871,826.001 675.01,826.301 675.039,826.601 675.141,826.901 675.211,827.201 675.396,827.501 675.908,827.801 675.934,828.102 676.981,828.402 677.164,828.702 677.537,829.002 677.695,829.302 677.906,829.602 677.984,829.902 678.152,830.202 678.368,830.503 678.416,830.803 679.511,831.103 679.757,831.403 679.907,831.703 680.415,832.003 680.519,832.303 681.027,832.603 681.096,832.904 681.231,833.204 681.304,833.504 681.326,833.804 682.209,834.104 682.296,834.404 682.663,835.305 683.313,835.605 684.347,835.905 684.383,836.205 684.44,836.505 684.478,836.805 684.536,837.105 684.724,837.405 684.792,837.706 684.85,838.006 684.963,838.306 685.027,838.606 685.247,838.906 685.356,839.206 685.364,839.506 686.009,839.806 686.355,840.107 687.065,840.407 687.14,840.707 687.299,841.307 687.374,841.907 687.601,842.208 688.061,842.508 688.686,842.808 689.222,843.108 689.854,843.408 690.074,843.708 690.247,844.008 690.535,844.308 690.606,844.609 690.8,844.909 690.904,845.209 691.018,845.509 691.252,845.809 691.687,846.109 691.809,846.709 691.994,847.01 692.169,847.31 692.478,847.61 692.982,847.91 693.244,848.21 693.247,848.51 693.517,848.81 693.689,849.11 693.717,849.411 694.08,849.711 694.376,850.011 695.239,850.311 695.61,850.611 695.645,850.911 695.75,851.211 695.801,851.511 696.036,851.812 696.329,852.112 697.3,852.412 697.386,853.012 697.429,853.312 697.505,853.612 697.849,853.913 698.062,854.213 698.342,854.513 698.442,854.813 699.089,855.113 699.168,855.413 699.228,855.713 699.608,856.013 700.215,856.314 700.682,856.914 700.718,857.214 700.852,857.514 700.955,857.814 701.075,858.114 701.273,858.414 701.897,858.715 702.136,859.015 702.195,859.315 702.536,859.615 703.23,859.915 703.423,860.215 703.66,860.515 703.817,860.815 704.002,861.116 704.166,861.416 704.52,861.716 704.598,862.016 704.815,862.316 704.973,862.616 705.242,862.916 705.68,863.517 705.786,863.817 705.872,864.117 706.134,864.417 706.471,864.717 707.341,865.017 707.815,865.317 707.867,865.617 707.962,865.918 708.35,866.218 708.357,866.518 708.73,866.818 708.925,867.118 709.604,867.418 710.111,867.718 711.696,868.019 712.431,868.319 712.449,868.619 712.473,868.919 712.723,869.219 712.816,869.519 713.208,869.819 713.404,870.119 713.441,870.42 713.914,870.72 714.361,871.02 714.486,871.32 715.293,871.62 715.445,872.22 715.554,872.52 715.593,872.821 715.853,873.121 715.98,873.421 716.753,873.721 716.783,874.021 716.913,874.321 717.082,874.621 717.188,874.921 717.711,875.222 717.921,875.522 718.334,875.822 718.363,876.122 718.779,876.422 718.981,876.722 719.046,877.022 719.718,877.322 719.833,877.623 720.137,877.923 720.248,878.223 720.551,878.523 720.571,878.823 720.9,879.123 721.212,879.423 721.352,879.723 721.698,880.024 721.875,880.324 722.297,880.624 722.331,880.924 722.621,881.224 722.665,881.524 723.125,881.824 723.306,882.125 723.323,882.425 724.294,882.725 725.024,883.025 725.265,883.325 725.363,883.625 726.107,883.925 726.319,884.225 726.615,884.526 726.626,884.826 727.073,885.126 727.378,885.426 727.527,885.726 728.143,886.026 728.317,886.326 728.336,886.626 728.796,886.927 728.961,887.227 729.326,887.527 729.648,887.827 729.81,888.127 730.226,888.427 730.251,888.727 730.603,889.027 730.715,889.328 730.768,889.628 731.123,889.928 731.74,890.228 732.114,890.528 732.278,890.828 732.326,891.128 732.647,891.428 732.669,891.729 732.967,892.029 733.129,892.329 733.223,892.629 733.42,892.929 733.588,893.229 733.676,893.529 734.218,893.829 734.312,894.13 734.785,894.43 734.83,894.73 734.937,895.03 735.154,895.93 735.628,896.231 735.736,896.531 736.024,896.831 736.597,897.131 736.983,897.431 737.355,897.731 737.452,898.031 737.659,898.331 737.822,898.632 737.853,898.932 738.594,899.232 738.698,899.532 738.885,899.832 738.933,900.132 739.393,900.432 739.798,900.732 739.862,901.033 739.906,901.333 740.376,901.633 740.509,901.933 740.605,902.233 740.999,902.533 741.031,902.833 741.351,903.133 741.376,903.434 741.761,903.734 742.221,904.034 742.283,904.334 742.927,904.634 742.943,904.934 743.077,905.234 743.408,905.534 743.692,905.835 743.828,906.135 744.764,906.435 745.731,906.735 745.802,907.035 746.069,907.335 746.141,907.635 747.34,907.935 748.09,908.236 748.175,908.536 748.527,908.836 749.54,909.136 749.607,909.436 749.735,910.036 750.02,910.337 750.225,910.637 750.638,910.937 751.305,911.237 751.444,911.537 751.957,911.837 752.018,912.137 752.567,912.437 752.722,914.238 752.75,914.538 753.187,914.838 753.68,915.139 753.903,915.439 753.948,915.739 755.01,916.039 755.544,916.339 755.727,916.639 755.801,916.939 756.433,917.239 756.482,917.54 756.613,917.84 756.795,918.14 757.043,918.44 757.474,918.74 757.495,919.04 757.895,919.34 758.022,919.64 758.052,919.941 758.119,920.241 758.605,920.541 758.647,920.841 758.706,921.141 758.852,921.441 758.891,921.741 759.098,922.042 759.317,922.942 759.725,923.242 759.748,923.542 760.054,923.842 760.064,924.142 760.114,924.443 760.444,924.743 760.646,925.043 760.747,925.643 761.095,925.943 761.774,926.243 762.135,926.543 762.587,926.844 762.668,927.144 763.077,927.444 763.372,927.744 763.801,928.044 763.859,928.344 764.168,928.944 764.188,929.245 764.288,929.545 765.182,929.845 765.433,930.145 765.669,930.445 765.925,930.745 766.229,931.045 766.401,931.345 766.696,931.646 766.813,931.946 767.044,932.246 767.072,932.546 767.208,932.846 767.24,933.146 767.251,933.446 767.816,933.746 767.819,934.047 769.205,934.347 769.239,934.647 769.523,934.947 769.675,935.247 769.767,935.547 770.054,935.847 770.148,936.148 770.428,936.448 770.559,936.748 771.002,937.048 771.159,937.348 771.168,937.648 771.456,937.948 771.572,938.549 772.092,938.849 773.005,939.149 773.229,939.449 773.78,939.749 774.36,940.049 774.628,940.349 774.925,940.649 775.101,940.95 775.286,941.25 775.707,941.55 776.052,942.15 776.764,942.45 777.418,942.75 777.79,943.05 777.899,943.351 778.29,943.651 778.622,943.951 778.858,944.551 778.866,944.851 779.05,945.151 779.578,945.451 779.753,945.752 780.094,946.052 780.678,946.352 780.974,946.652 781.13,946.952 781.14,947.252 781.991,947.552 782.164,947.852 782.244,948.153 782.76,948.453 783.271,949.353 783.808,949.653 784.584,949.953 784.631,950.254 784.931,950.554 785.358,950.854 785.363,951.154 785.558,951.454 788.288,951.754 788.799,952.054 788.987,952.354 789.282,952.655 789.855,954.155 790.509,954.455 790.581,954.755 791.256,955.056 791.722,955.356 792.231,955.656 792.292,955.956 792.38,956.256 792.472,956.556 792.587,956.856 792.762,957.457 792.959,957.757 793.135,958.057 793.262,958.357 793.737,958.657 794.042,958.957 794.37,959.257 794.45,959.557 794.69,959.858 795.533,960.158 796.337,960.458 796.361,960.758 796.717,961.058 796.786,961.358 796.827,961.658 797.116,961.958 797.163,962.259 797.174,962.559 797.219,962.859 797.644,963.159 797.828,963.459 797.98,963.759 798.947,964.96 799.456,965.26 800.838,965.56 801.025,965.86 801.49,966.16 802.023,966.46 802.267,966.761 802.987,967.061 803.049,967.361 803.076,967.661 804.231,967.961 804.329,968.261 804.444,968.561 804.677,968.861 805.112,969.162 805.142,969.462 806.638,969.762 807.411,970.062 807.613,970.362 808.019,970.662 808.483,970.962 808.761,971.262 809.34,971.563 809.441,971.863 809.549,972.163 809.747,973.063 809.991,973.363 810.872,973.663 811.11,973.964 811.476,974.264 811.745,974.564 812.134,974.864 812.181,975.164 812.26,975.464 812.264,975.764 812.373,976.065 812.68,976.365 812.862,976.665 812.901,976.965 813.607,977.265 814.029,977.565 814.711,977.865 814.797,978.165 815.063,978.466 815.229,978.766 816.654,979.066 818.407,979.366 818.656,979.666 818.939,979.966 819.718,980.266 819.723,980.566 819.905,981.167 821.966,981.767 823.06,982.067 823.278,982.367 824.166,982.667 824.39,982.967 825.571,983.268 826.187,983.568 826.236,983.868 827.657,984.168 828.504,984.468 829.002,984.768 831.279,985.068 831.38,985.368 831.628,985.669 831.894,985.969 832.061,986.269 832.24,986.569 832.482,986.869 832.547,987.169 833.487,987.469 834.01,987.769 835.233,988.07 835.31,988.37 835.558,988.67 836.076,988.97 836.474,989.27 836.565,989.57 837.452,989.87 838.739,990.171 839.164,990.471 839.694,990.771 840.083,991.071 840.535,991.371 841.143,991.671 841.802,991.971 842.062,992.271 842.825,992.572 844.129,992.872 844.177,993.172 844.388,993.472 844.698,993.772 844.824,994.072 845.631,994.372 847.084,994.672 847.358,994.973 847.638,995.273 847.948,996.173 848.2,996.473 848.37,996.773 848.426,997.073 849.575,997.374 850.143,997.674 850.658,997.974 851.249,998.274 851.66,998.574 852.277,998.874 852.364,999.174 852.849,999.474 854.414,999.775 854.618,1000.07 854.799,1000.37 856.055,1000.67 856.418,1000.98 857.195,1001.28 857.952,1001.58 858.95,1001.88 859.407,1002.18 859.424,1002.48 859.846,1002.78 860.026,1003.08 860.815,1003.38 861.061,1003.68 861.522,1003.98 861.657,1004.28 861.662,1004.58 861.78,1004.88 863.466,1005.18 863.757,1005.48 863.809,1005.78 864.07,1006.08 864.407,1006.38 864.607,1006.68 864.869,1006.98 865.357,1007.28 865.587,1007.58 866.363,1008.18 866.451,1008.48 866.471,1008.78 866.867,1009.08 868.121,1009.38 868.229,1009.68 868.693,1009.98 869.111,1010.28 869.261,1010.58 869.377,1010.88 869.388,1011.18 869.507,1011.48 869.581,1011.78 869.688,1012.08 870.216,1012.38 870.336,1012.68 870.576,1012.98 872.133,1013.28 872.244,1013.58 872.365,1013.88 872.434,1014.18 872.463,1014.48 872.52,1014.78 873.035,1015.08 873.1,1015.38 873.289,1015.68 874.344,1015.98 874.373,1016.28 875.248,1016.58 876.427,1016.88 876.537,1017.18 876.699,1017.48 877.119,1017.78 877.128,1018.08 878.358,1018.38 879.044,1018.68 879.374,1018.98 879.539,1019.28 879.848,1019.58 879.881,1019.88 880.153,1020.18 880.349,1020.78 880.544,1021.08 880.666,1021.38 881.005,1021.68 881.185,1021.98 881.652,1022.28 883.202,1022.58 883.244,1022.88 883.613,1023.18 885.136,1023.48 885.415,1023.78 886.043,1024.39 886.692,1024.69 886.988,1024.99 887.298,1025.29 887.409,1025.59 887.51,1026.79 888.559,1027.09 889.143,1027.39 889.863,1027.69 890.23,1027.99 890.301,1028.29 890.542,1028.59 892.322,1028.89 892.396,1029.19 892.523,1029.49 892.628,1029.79 893.272,1030.09 893.461,1030.39 894.332,1030.69 894.408,1030.99 894.446,1031.29 894.983,1031.59 895.309,1031.89 895.6,1032.19 895.639,1032.49 895.671,1032.79 895.974,1033.09 896.184,1033.39 896.289,1033.69 896.743,1033.99 896.971,1034.29 898.449,1034.59 898.928,1034.89 899.245,1035.19 899.62,1035.49 899.73,1035.79 899.985,1036.09 900.535,1036.39 901.153,1036.69 901.268,1036.99 901.769,1037.29 901.868,1037.59 903.315,1037.89 903.717,1038.19 903.791,1038.49 904.305,1039.09 904.565,1039.39 905.368,1039.69 905.438,1039.99 905.759,1040.29 906.494,1040.59 906.616,1040.89 907.398,1041.19 907.761,1041.49 907.799,1041.79 909.031,1042.09 909.815,1042.39 909.983,1042.69 910.106,1042.99 910.554,1043.29 911.264,1043.59 912.312,1043.89 912.356,1044.49 913.159,1044.79 913.27,1045.09 913.917,1045.39 915.069,1045.69 915.116,1045.99 915.618,1046.29 915.823,1046.59 917.415,1046.89 917.523,1047.19 918.233,1047.49 918.571,1047.8 919.935,1048.4 920.141,1048.7 920.249,1049 920.855,1049.3 921.014,1049.6 922.041,1049.9 923.704,1050.2 923.857,1050.5 924.036,1050.8 924.122,1051.4 924.516,1051.7 924.809,1052 924.904,1052.3 924.937,1052.6 925.371,1052.9 926.078,1053.2 926.704,1053.8 927.554,1054.1 927.646,1054.4 928.92,1054.7 929.032,1055 929.315,1055.3 929.726,1055.6 929.897,1055.9 929.959,1056.2 930.26,1056.5 931.92,1056.8 932.216,1057.1 933.409,1057.4 933.445,1057.7 934.183,1058 934.305,1058.3 934.82,1058.6 935.568,1058.9 935.806,1059.2 936.37,1059.5 936.458,1059.8 936.657,1060.1 936.848,1060.4 937.263,1060.7 937.959,1061 938.216,1061.3 938.464,1061.6 938.756,1061.9 939.235,1062.2 939.312,1062.5 939.494,1064.3 939.678,1064.6 940.183,1064.9 940.31,1065.2 940.711,1065.5 941.297,1065.8 942.126,1066.1 943.06,1066.4 943.359,1066.7 945.024,1067 945.235,1067.3 947.525,1067.6 947.529,1067.9 947.828,1068.2 947.831,1068.5 947.927,1068.8 948.041,1069.1 948.978,1069.4 949.663,1069.7 949.676,1070 949.857,1070.3 949.932,1070.6 950.203,1070.9 950.418,1071.21 950.951,1072.71 951.551,1073.01 951.978,1073.31 952.1,1073.61 952.19,1073.91 952.261,1074.21 952.54,1074.51 953.047,1074.81 953.63,1075.11 953.702,1075.41 955.066,1075.71 955.501,1076.01 955.729,1076.61 955.77,1076.91 956.332,1077.21 956.369,1077.51 956.587,1077.81 956.809,1078.11 957.133,1078.71 958.194,1079.01 958.262,1079.31 958.919,1079.61 960.398,1079.91 961.131,1080.21 961.236,1080.51 961.27,1080.81 961.431,1081.11 962.037,1081.41 962.319,1081.71 963.572,1082.01 964.135,1082.31 965.222,1082.61 965.261,1082.91 965.453,1083.21 965.707,1083.51 965.774,1083.81 966.595,1084.11 966.797,1084.41 967.647,1084.71 967.971,1085.01 968.99,1085.31 970.424,1085.61 970.434,1085.91 970.579,1086.21 971.304,1086.51 971.911,1086.81 972.076,1087.11 972.218,1087.41 972.275,1087.71 972.587,1088.01 972.728,1088.31 973.837,1088.61 975.141,1088.91 976.748,1089.21 977.301,1089.51 977.797,1089.81 978.961,1090.11 979.21,1090.41 980.037,1090.71 980.113,1091.31 981.718,1091.61 981.853,1091.91 982.082,1092.21 982.475,1092.51 982.984,1092.81 983.334,1093.11 984.036,1093.41 984.26,1093.71 984.487,1094.31 984.951,1094.61 985.569,1094.92 986.898,1096.12 987.866,1096.42 988.163,1096.72 988.929,1097.02 989.086,1097.32 989.468,1097.62 990.022,1097.92 991.011,1098.22 991.531,1098.52 992.047,1098.82 993.059,1099.12 993.201,1099.42 993.278,1099.72 993.321,1100.02 994.276,1100.32 995.263,1100.62 995.396,1100.92 995.666,1101.22 995.747,1101.52 996.156,1101.82 996.424,1102.12 996.73,1102.42 996.891,1102.72 997.386,1103.62 997.494,1103.92 997.61,1104.22 998.308,1104.52 998.86,1105.12 1000.74,1105.42 1001.57,1105.72 1003.03,1106.02 1003.29,1106.32 1003.46,1106.62 1003.77,1106.92 1003.88,1107.22 1004.61,1107.52 1005.5,1107.82 1005.81,1108.12 1007.7,1108.42 1007.92,1108.72 1008.24,1109.02 1008.56,1109.32 1008.65,1109.62 1008.77,1109.92 1009.08,1110.22 1010.2,1110.52 1010.59,1110.82 1010.85,1111.12 1010.86,1111.42 1011.93,1111.72 1012.44,1112.02 1013.23,1112.32 1013.34,1112.62 1013.37,1112.92 1013.83,1113.52 1013.84,1113.82 1014.32,1114.12 1014.55,1114.42 1015.25,1114.72 1016.14,1115.02 1016.3,1115.32 1016.39,1115.62 1017.51,1115.92 1018.02,1116.22 1018.3,1116.52 1018.87,1116.82 1019.54,1117.12 1019.93,1117.42 1020.26,1117.72 1020.48,1118.02 1020.64,1118.33 1021.55,1118.63 1021.61,1118.93 1022.14,1119.23 1022.69,1119.53 1023.63,1119.83 1024.26,1120.13 1024.34,1120.43 1024.45,1120.73 1024.53,1121.03 1024.78,1121.33 1025.27,1121.63 1025.72,1121.93 1027.6,1122.23 1028.61,1122.53 1028.82,1122.83 1028.88,1123.13 1029.2,1123.43 1031.05,1123.73 1031.51,1124.03 1032.7,1124.33 1033.23,1124.63 1033.55,1124.93 1034.79,1126.13 1036.98,1126.43 1038.01,1128.53 1038.29,1128.83 1038.55,1129.13 1038.65,1129.43 1039.28,1129.73 1039.7,1130.03 1040.07,1130.33 1042.28,1130.63 1042.63,1130.93 1043.13,1131.23 1043.46,1131.53 1044.02,1131.83 1044.73,1132.13 1044.8,1132.43 1045.32,1133.03 1046.19,1133.33 1047.06,1133.63 1048.76,1133.93 1050.32,1134.23 1050.51,1134.53 1050.77,1134.83 1051.11,1135.13 1051.62,1135.43 1052.02,1135.73 1052.76,1136.03 1052.98,1136.33 1053.18,1136.63 1055.41,1136.93 1055.44,1137.53 1055.48,1137.83 1055.99,1138.13 1057.08,1138.43 1058.37,1138.73 1059.06,1139.03 1059.25,1139.33 1059.81,1139.63 1061.37,1139.93 1063,1140.23 1063.6,1140.53 1064.46,1140.83 1065.65,1141.13 1066.05,1141.43 1066.32,1141.74 1066.54,1142.04 1066.8,1142.34 1067.04,1142.64 1067.25,1142.94 1067.6,1143.24 1067.97,1143.54 1069.81,1143.84 1069.97,1144.14 1070.18,1144.44 1070.48,1145.04 1070.5,1145.34 1070.81,1145.64 1071.42,1145.94 1072.75,1146.24 1073.23,1146.54 1073.76,1146.84 1074.5,1147.14 1074.88,1147.44 1075.16,1147.74 1075.5,1148.04 1076.52,1148.34 1076.85,1148.64 1076.91,1148.94 1077.93,1149.24 1078.66,1149.54 1078.77,1149.84 1079.11,1150.14 1081.06,1150.44 1081.32,1150.74 1082.05,1151.04 1082.11,1151.34 1082.21,1151.64 1083.06,1151.94 1084.35,1152.24 1085.1,1152.84 1085.52,1153.14 1086.88,1153.44 1086.97,1153.74 1087.19,1154.04 1087.41,1154.34 1087.97,1155.84 1088.14,1156.14 1088.31,1156.44 1088.35,1156.74 1088.39,1157.04 1089.04,1157.34 1089.35,1157.64 1090.26,1157.94 1091.86,1158.24 1092.16,1158.54 1092.83,1158.84 1093.04,1159.14 1093.12,1159.44 1093.45,1159.74 1094.38,1160.04 1094.84,1160.34 1095.28,1160.64 1095.65,1160.94 1095.9,1161.24 1096.85,1161.54 1097.12,1161.84 1097.17,1162.14 1097.29,1162.44 1098.08,1162.74 1098.43,1163.34 1099.7,1163.64 1099.83,1163.94 1100.21,1164.24 1100.5,1164.54 1101.35,1164.84 1101.55,1165.14 1101.56,1165.45 1102.1,1166.05 1102.76,1167.85 1103.06,1168.15 1103.39,1168.45 1103.86,1168.75 1103.92,1169.05 1105.1,1169.35 1106,1169.65 1106.25,1169.95 1107.6,1170.25 1107.69,1170.55 1108.18,1170.85 1108.55,1171.15 1108.77,1171.75 1108.92,1172.05 1109.1,1172.35 1109.14,1172.65 1109.36,1172.95 1109.54,1173.25 1109.63,1173.55 1109.66,1174.15 1110.25,1174.45 1110.56,1174.75 1111.34,1175.05 1111.47,1175.35 1112.79,1175.65 1112.97,1175.95 1115.47,1176.25 1116.48,1176.55 1116.75,1176.85 1118.63,1177.15 1121.13,1178.05 1121.26,1178.35 1121.29,1178.95 1121.7,1179.25 1122.48,1179.55 1123.71,1179.85 1123.86,1180.15 1125.68,1180.45 1126.11,1180.75 1126.9,1181.05 1127.41,1181.35 1128.49,1181.65 1128.7,1181.95 1131.53,1182.25 1132.25,1182.55 1132.66,1182.85 1134.19,1183.15 1136.18,1183.45 1136.28,1183.75 1138.89,1184.05 1138.97,1184.35 1139.27,1184.65 1139.7,1184.95 1139.88,1185.25 1140.84,1185.55 1141.67,1185.85 1142.59,1186.15 1143.61,1186.45 1143.78,1186.75 1144.06,1187.05 1148.03,1187.35 1149.53,1187.65 1150.54,1187.95 1151.17,1188.25 1152.17,1188.55 1152.49,1188.86 1152.77,1189.16 1153.36,1189.46 1154.48,1189.76 1155.89,1190.06 1156.01,1190.66 1157.1,1190.96 1157.22,1191.26 1158.15,1191.56 1158.39,1191.86 1158.78,1192.46 1159.01,1192.76 1159.09,1193.06 1159.45,1193.36 1159.97,1193.66 1161.06,1193.96 1162.21,1194.26 1163.2,1194.56 1164.14,1194.86 1166.45,1195.16 1168.79,1195.46 1170.7,1195.76 1171.18,1196.06 1172.95,1196.36 1174.15,1196.66 1174.52,1196.96 1175.09,1197.86 1177.74,1198.16 1177.78,1198.46 1179.18,1198.76 1179.21,1199.06 1179.28,1199.36 1179.61,1199.66 1179.9,1199.96 1181.04,1200.26 1181.64,1200.56 1181.78,1200.86 1183.21,1201.16 1184.26,1201.76 1184.56,1202.06 1185.7,1202.36 1187.54,1202.66 1190.81,1202.96 1192.09,1203.26 1193.52,1203.56 1193.62,1203.86 1194.31,1204.16 1194.99,1204.46 1195.57,1204.76 1198.44,1205.06 1198.6,1205.36 1198.83,1205.66 1200.26,1205.96 1200.89,1206.26 1203.4,1206.56 1203.75,1206.86 1203.85,1207.16 1203.9,1207.46 1205.24,1207.76 1205.36,1208.06 1205.91,1208.36 1207.01,1208.66 1208.61,1208.96 1210.2,1209.26 1210.26,1209.56 1210.31,1209.86 1211.99,1210.16 1212.58,1210.46 1212.61,1210.76 1212.87,1211.06 1212.89,1211.36 1213.14,1211.66 1214.45,1211.96 1214.55,1212.27 1214.91,1212.57 1215.81,1212.87 1216.96,1213.17 1218.1,1213.47 1220.38,1213.77 1223.64,1214.07 1225.14,1214.37 1226.76,1214.67 1226.93,1214.97 1227.47,1215.87 1227.66,1216.17 1228.82,1216.47 1228.9,1216.77 1229.9,1217.07 1231.25,1217.37 1232.46,1217.67 1232.72,1217.97 1232.73,1218.27 1232.76,1218.57 1233.97,1218.87 1234.37,1219.17 1235.9,1219.47 1236.53,1219.77 1237.51,1220.07 1240.77,1220.37 1241.26,1220.67 1241.38,1220.97 1241.65,1221.27 1248.07,1221.57 1248.8,1221.87 1248.86,1222.17 1249.05,1222.47 1249.57,1222.77 1251.49,1223.07 1252.33,1223.37 1252.38,1223.67 1253.5,1223.97 1256.34,1224.27 1256.59,1224.57 1257.27,1225.17 1257.97,1225.47 1260.74,1225.77 1260.82,1226.07 1261.16,1226.37 1261.46,1226.67 1262.14,1226.97 1262.47,1227.27 1263.41,1227.57 1264.27,1227.87 1266.2,1228.17 1266.29,1228.47 1268.27,1228.77 1268.66,1229.07 1268.78,1229.37 1269.08,1229.67 1269.32,1229.97 1270,1230.27 1273.01,1230.57 1273.89,1230.87 1274.02,1231.17 1274.16,1231.47 1274.57,1231.77 1278.69,1232.07 1284.1,1232.37 1284.61,1232.67 1286.31,1233.87 1287,1234.17 1287.38,1234.47 1288.43,1234.77 1292.03,1235.07 1292.85,1235.37 1293.65,1235.68 1294.47,1235.98 1295.87,1236.28 1297.99,1236.58 1298.89,1236.88 1298.9,1237.18 1298.94,1237.48 1299.48,1237.78 1300.15,1238.08 1301.55,1238.38 1301.95,1238.68 1303.34,1238.98 1304.18,1239.28 1305.12,1239.58 1306.59,1239.88 1306.88,1240.18 1309.8,1240.48 1311.78,1240.78 1312.56,1241.08 1312.89,1241.38 1313.3,1241.68 1318.46,1241.98 1319.85,1242.28 1320.33,1242.58 1326.16,1242.88 1326.26,1243.18 1326.34,1243.48 1328.53,1243.78 1330.05,1244.08 1331.55,1244.38 1336.04,1244.68 1339.26,1244.98 1339.57,1245.28 1339.69,1245.58 1340.88,1245.88 1341.12,1246.18 1342.1,1246.48 1342.99,1246.78 1343.57,1247.08 1345.09,1247.38 1345.87,1247.68 1346.03,1247.98 1348.22,1248.28 1349.13,1248.58 1350.95,1248.88 1351.22,1249.18 1354.57,1249.48 1354.72,1249.78 1357.28,1250.08 1359.72,1250.38 1361.77,1250.68 1362.32,1250.98 1362.67,1251.28 1363.7,1251.88 1364.34,1252.18 1366.21,1252.48 1366.8,1252.78 1369.04,1253.08 1371.93,1253.38 1372.12,1253.68 1372.8,1253.98 1372.86,1254.28 1374.6,1254.58 1375.41,1254.88 1387.48,1255.18 1387.83,1255.48 1389.52,1255.78 1394.79,1256.08 1397.41,1256.38 1397.78,1256.68 1398.1,1256.98 1398.92,1257.28 1400.6,1257.58 1404.06,1259.99 1404.17,1260.29 1407.04,1260.59 1410.09,1260.89 1412.68,1261.19 1413.29,1261.49 1413.52,1261.79 1413.81,1262.09 1415.3,1262.39 1419.24,1262.69 1419.86,1262.99 1421.44,1263.29 1422.86,1263.59 1423.41,1263.89 1424.85,1264.19 1426.6,1264.79 1426.82,1265.09 1435.29,1265.39 1435.86,1265.69 1436.15,1265.99 1436.46,1266.29 1439.41,1266.59 1442.32,1266.89 1443.87,1267.19 1450.43,1267.49 1450.61,1267.79 1450.72,1268.09 1453.5,1268.39 1455.26,1268.69 1456.34,1269.29 1456.99,1269.59 1459.45,1269.89 1462.88,1270.19 1464.53,1270.49 1472.93,1270.79 1473.92,1271.09 1480.72,1271.39 1480.91,1271.69 1487.53,1271.99 1490,1272.29 1490.44,1272.59 1492.14,1272.89 1502.23,1273.19 1505.02,1273.49 1505.29,1274.69 1507.65,1274.99 1508.08,1275.29 1509.94,1275.59 1510.34,1275.89 1512.68,1276.19 1515.74,1276.49 1517.44,1276.79 1518.48,1277.09 1524.27,1277.39 1525.04,1277.69 1527.77,1277.99 1534.21,1278.29 1544.61,1278.59 1546.24,1278.89 1547.14,1279.19 1552.74,1279.49 1553.23,1279.79 1554.12,1280.09 1554.52,1280.39 1557.02,1280.69 1558.92,1280.99 1559.66,1281.29 1560,1281.59 1561.06,1281.89 1561.41,1282.19 1561.42,1282.49 1564.59,1282.8 1568.92,1283.1 1574.88,1283.4 1575.29,1283.7 1577.21,1284 1579.91,1284.3 1580.95,1284.6 1581.28,1284.9 1581.43,1285.2 1583.94,1285.5 1585.31,1285.8 1593.83,1286.1 1596.73,1286.4 1602,1286.7 1606.12,1287 1608.42,1287.3 1612.52,1287.6 1613.73,1288.2 1615.15,1288.5 1617.97,1288.8 1620.69,1289.1 1621.67,1289.4 1625,1289.7 1627.69,1290 1628.18,1290.3 1630.56,1290.6 1632.4,1290.9 1639.48,1291.2 1640.25,1291.5 1640.4,1291.8 1640.88,1292.1 1641.95,1292.4 1645.82,1292.7 1647.47,1293 1648.5,1293.3 1649.93,1293.6 1651.4,1293.9 1651.66,1294.2 1652.66,1294.5 1652.91,1294.8 1653.06,1295.1 1655.3,1295.4 1656.91,1295.7 1658.12,1296 1662.02,1296.3 1664.42,1296.9 1666.39,1297.5 1667.43,1297.8 1672.65,1298.1 1676.53,1298.4 1678.05,1299.3 1680.39,1299.6 1683.26,1301.7 1683.97,1302 1683.98,1302.3 1685,1302.6 1687.88,1302.9 1689.75,1303.2 1695.8,1303.5 1698.42,1303.8 1704.3,1304.1 1707.29,1304.4 1717.49,1304.7 1726.39,1305 1726.76,1305.3 1728.34,1305.6 1737.66,1306.21 1740.94,1306.51 1757.95,1314.91 1760.07,1315.21 1762.08,1315.51 1762.88,1315.81 1767.75,1317.01 1771.26,1317.31 1776.15,1317.61 1778.82,1317.91 1781.33,1318.51 1784.44,1318.81 1790.44,1319.11 1791.29,1319.41 1801.62,1319.71 1803.72,1320.01 1815.64,1320.31 1816.03,1320.61 1820.97,1320.91 1826.82,1321.21 1845.75,1321.51 1855.29,1321.81 1862.65,1322.11 1866.05,1322.41 1868.22,1324.21 1870.09,1324.51 1870.2,1324.81 1875.24,1325.11 1879.82,1325.41 1889.96,1326.01 1893.19,1326.31 1896.04,1326.61 1899.36,1326.91 1901.14,1327.21 1908.43,1327.51 1926.54,1327.81 1927.15,1328.11 1937.57,1328.41 1948.32,1328.71 1948.45,1329.01 1950.19,1329.31 1954.81,1329.62 1983.01,1329.92 1985.41,1330.22 1985.92,1330.82 1990,1331.12 2004.94,1331.42 2010.16,1331.72 2017.5,1332.02 2020.48,1332.32 2029.28,1332.62 2034.32,1336.22 2038.31,1336.52 2040.87,1336.82 2047.08,1337.12 2056.36,1337.42 2057.1,1337.72 2059.72,1338.02 2064.6,1338.32 2090.73,1338.62 2110.39,1338.92 2110.7,1339.22 2112.44,1339.52 2119.92,1339.82 2159.23,1340.12 2159.29,1340.42 2160.14,1340.72 2166.63,1341.32 2170.44,1341.62 2182.27,1341.92 2187.75,1342.22 2197.4,1342.52 2209.05,1342.82 2211.62,1343.12 2213.71,1343.42 2220.62,1343.72 2221.79,1344.02 2232.12,1344.32 2233.96,1344.62 2234.62,1344.92 2239.13,1345.22 2243.41,1345.52 2243.92,1345.82 2247.58,1346.12 2248.53,1346.42 2254.66,1346.72 2254.85,1347.02 2256.62,1347.32 2258.17,1348.22 2259.19,1348.52 2267.73,1348.82 2273.05,1349.12 2273.73,1349.42 2275.64,1350.02 2277.84,1350.32 2280.99,1350.62 2285.99,1350.92 2288.19,1351.22 2288.4,1351.52 2289.84,1351.82 2291.13,1352.12 2291.44,1352.42 2292.39,1353.93 "/>
<path clip-path="url(#clip670)" d="M2015.94 196.789 L2281.66 196.789 L2281.66 93.1086 L2015.94 93.1086  Z" fill="#ffffff" fill-rule="evenodd" fill-opacity="1"/>
<polyline clip-path="url(#clip670)" style="stroke:#000000; stroke-linecap:round; stroke-linejoin:round; stroke-width:4; stroke-opacity:1; fill:none" points="2015.94,196.789 2281.66,196.789 2281.66,93.1086 2015.94,93.1086 2015.94,196.789 "/>
<polyline clip-path="url(#clip670)" style="stroke:#009af9; stroke-linecap:round; stroke-linejoin:round; stroke-width:4; stroke-opacity:1; fill:none" points="2039.64,144.949 2181.83,144.949 "/>
<path clip-path="url(#clip670)" d="M2219.37 164.636 Q2217.57 169.266 2215.85 170.678 Q2214.14 172.09 2211.27 172.09 L2207.87 172.09 L2207.87 168.525 L2210.37 168.525 Q2212.13 168.525 2213.1 167.692 Q2214.07 166.858 2215.25 163.756 L2216.02 161.812 L2205.53 136.303 L2210.04 136.303 L2218.15 156.581 L2226.25 136.303 L2230.76 136.303 L2219.37 164.636 Z" fill="#000000" fill-rule="evenodd" fill-opacity="1" /><path clip-path="url(#clip670)" d="M2238.05 158.293 L2245.69 158.293 L2245.69 131.928 L2237.38 133.595 L2237.38 129.335 L2245.65 127.669 L2250.32 127.669 L2250.32 158.293 L2257.96 158.293 L2257.96 162.229 L2238.05 162.229 L2238.05 158.293 Z" fill="#000000" fill-rule="evenodd" fill-opacity="1" /></svg>
